<svg width="301" height="408" viewBox="0 0 301 408" fill="none" xmlns="http://www.w3.org/2000/svg">
<path d="M181.5 312.5C180 311 184 350.5 184 350.5C184 350.5 173.735 353.423 167 354.5C160.227 355.583 149.5 356 149.5 356V299.5C186.427 288.676 204.439 278.464 231.5 252.5L268 308C246.497 324.066 233.627 332.063 208 343C208 343 183 314 181.5 312.5Z" fill="#F3F8FF"/>
<circle cx="222" cy="322" r="5" fill="#F99746"/>
<path d="M155.5 361V356L170 354L184 350.5L181.5 313L208.5 343L234 331L257 316.5L208.5 354L193.5 344V359.5L155.5 361Z" fill="#ED7D2B"/>
<path d="M156.5 407.5L155.5 361L193.5 359.5V344L208.5 354L257 316.5L301 407.5H156.5Z" fill="#F99746"/>
<path d="M162.5 266.5H114L124.5 279L139.5 288.5L149.5 299.5C149.5 299.5 178.17 291.427 194.5 282C210.505 272.761 231.5 252.5 231.5 252.5C231.5 252.5 224 160.5 223.5 157.5C223 154.5 212 124 212 124L205 87.0001C205 87.0001 191.5 40 191 39.0001C190.5 38.0001 187.606 36.2685 185 36.0001C180.367 35.5229 175 40.5 175 42.5001V116C177.152 123.383 177.913 127.463 177.5 134.5L175 138L174.5 251L162.5 266.5Z" fill="#EFA26F"/>
<path d="M197.232 60.1386C197.232 59.6386 191.5 40 191 39C190.5 38 188.5 41 187.5 43C186.5 45 185.82 48.4413 186 52C186.162 55.2163 187.5 59.5 188 60C188.5 60.5 197.232 60.6385 197.232 60.1386Z" fill="#FFC197"/>
<path d="M162 265.5L114 266.5L124.5 279L139.5 288.5L149.5 299.5L178.5 289.5V277.5C178.5 276 172.5 272.5 171.5 271.5C170.5 270.5 165 264 165 264L162 265.5Z" fill="#D38254"/>
<path d="M188 138.5C188.75 144 178.478 168.318 175 188V138.5C175 138.5 177 135.5 177.5 134.5C178 133.5 177.258 123.495 175 116V95.5C175 95.5 187.25 133 188 138.5Z" fill="#D38254"/>
<rect y="15.312" width="26.9779" height="77.1713" rx="13.4889" transform="rotate(-34.5816 0 15.312)" fill="#FFB27D"/>
<path d="M36.7768 47.0462C36.7768 46.2017 29 57.2072 29 57.2072C29 57.2072 36.2748 68.5717 36.7769 68.9939C37.279 69.4161 36.7768 47.8908 36.7768 47.0462Z" fill="#EFA26F"/>
<rect x="37" y="5" width="138" height="262" rx="20" fill="#2B478B"/>
<rect x="45" y="12" width="122" height="246" rx="20" fill="white"/>
<path d="M78 9H133V13C133 16.866 129.866 20 126 20H85C81.134 20 78 16.866 78 13V9Z" fill="#2B478B"/>
<rect x="4" y="97.0754" width="31.2169" height="50.8576" rx="15.6084" transform="rotate(-74.458 4 97.0754)" fill="#FFB27D"/>
<path d="M25.0003 95.4307C25.5 97.0001 39.5005 101.431 39.5003 100.931C39.5001 100.431 38.3297 94.3605 39.5003 90.4307C40.7062 86.3823 45.191 81.74 45.5003 81.4307C45.8096 81.1213 41.095 79.0424 38.0003 78.4307C34.7439 77.7869 31 77.6806 29.5003 78.4307C28.0006 79.1807 26.902 82.8268 26.0003 85.9307C24.9596 89.513 24.5006 93.8612 25.0003 95.4307Z" fill="#FFD3B6"/>
<path d="M25.2054 95.9563C25.7119 97.3853 39.9036 101.42 39.9034 100.964C39.9032 100.509 38.7168 94.9818 39.9034 91.4034C41.1257 87.7171 44.1864 82.7817 44.5 82.5C44.8136 82.2183 41.5198 81.0336 38.3829 80.4766C35.082 79.8904 31.287 79.7937 29.7668 80.4766C28.2466 81.1595 27.133 84.4796 26.219 87.3059C25.1641 90.5679 24.6988 94.5272 25.2054 95.9563Z" fill="#FFC197"/>
<rect x="15.9493" y="100" width="48.394" height="26.1915" rx="13.0958" transform="rotate(22.3257 15.9493 100)" fill="#FFB27D"/>
<rect x="33.8185" y="111.675" width="21.3071" height="16.2326" rx="7" transform="rotate(22.6466 33.8185 111.675)" fill="#FFD3B6"/>
<rect x="32.6871" y="114.387" width="21.3071" height="13.2945" rx="6.64725" transform="rotate(22.6466 32.6871 114.387)" fill="#FFC197"/>
<rect x="22.5459" y="134.735" width="31.9129" height="17.5883" rx="8.79414" transform="rotate(15.326 22.5459 134.735)" fill="#FFB27D"/>
<rect x="34.6427" y="139.32" width="16.7221" height="12.5874" rx="6" transform="rotate(22.6466 34.6427 139.32)" fill="#FFD3B6"/>
<rect x="33.8342" y="141.257" width="16.7221" height="10.4877" rx="5.24384" transform="rotate(22.6466 33.8342 141.257)" fill="#FFC197"/>
<path d="M105.5 119H113L91.5 157H84L105.5 119Z" fill="#003DFF"/>
<path fill-rule="evenodd" clip-rule="evenodd" d="M126 119H118.5L97 157H102H104.5H126V150H108.461L126 119Z" fill="#003DFF"/>
</svg>
