<svg width="418" height="362" viewBox="0 0 418 362" fill="none" xmlns="http://www.w3.org/2000/svg">
<path d="M158 346L141 349.5L115.5 313L94.5 268L71 240L55 207H86L109 230C109 230 134 251 135 252C136 253 120 247 120 247.5C120 248 158 346 158 346Z" fill="#599DAD"/>
<path d="M176 182.5L191 136H188L174 178H129.5V183.5L176 182.5Z" fill="#4A75CB"/>
<path d="M144.5 362C143.5 362 141 350 141 349.5C141 349 156.5 346 156.5 346C156.5 346 166 354 167 354.5C168 355 178.5 357 178.5 357.5C178.5 358 179 362 178.5 362H144.5Z" fill="#163560"/>
<path d="M339.222 362C340.222 362 340 349.5 340 349C340 348.5 327.222 346.5 327.222 346.5C327.222 346.5 317.722 354 316.722 354.5C315.722 355 305.222 357 305.222 357.5C305.222 358 304.722 362 305.222 362H339.222Z" fill="#233862"/>
<path d="M107.812 314.519C107.294 313.663 115.411 305.83 115.839 305.571C116.267 305.312 127.285 316.761 127.285 316.761C127.285 316.761 125.787 328.772 125.877 329.886C125.967 331.001 129.691 341.02 129.263 341.278C128.836 341.537 125.672 344.036 125.413 343.608L107.812 314.519Z" fill="#163560"/>
<path d="M115.5 195L86 207C103.271 225.462 113.87 235.474 135 252.5C125.839 273.796 115 306 116 307L127.5 318.5C131.783 320.249 175.542 257.063 173 250C170.458 242.937 144.279 213.612 115.5 195Z" fill="#6BB7BF"/>
<path d="M53.5 116.5C53.5 120 54.5 207 54.5 207H86.5L115.5 195C114.646 184.044 114.38 177.552 114.5 165V154C114.5 151.5 108 103 107.5 100C107 97 92 81.5 92 81.5C92 81.5 82 82.5 80.5 82.5C79 82.5 71 76 71 76C59.4663 88.8646 53.5 113 53.5 116.5Z" fill="#2A4E96"/>
<path d="M80.5 82.5C79 82.5 71 76 71 76C74.8327 71.6966 76.2203 68.9818 77 63.5C77 63.5 89 74.5 89.5 74.5H92C92.5 74.5 92 81.5 91.5 81.5C91 81.5 82 82.5 80.5 82.5Z" fill="#FFB27D"/>
<path d="M89.5 74C89 74 77 63 77 63C77 63 77.4999 68 77.9999 68.5C78.4999 69 91.5 79 91.5 79L92 74H89.5Z" fill="#ED975D"/>
<path d="M93.5 204C80.4364 193.571 68.5 170.5 67 167C65.5 163.5 63.9765 153.631 64.5 145C64.9847 137.009 69 125 69 125L87 137L97 144L103.5 151L114.5 164.5L114 179.5L115.5 194.5L93.5 204Z" fill="#233862"/>
<path d="M141 179.5C140.5 179.5 134.5 177.5 134.5 177.5L133.5 185.5H139C139.5 185.5 138.5 187 139 187H153.5C154.5 187 160.5 182.5 161 181.5C161.5 180.5 161.5 179 161 179C160.5 179 148.5 179.5 148 179.5C147.5 179.5 147.5 178.5 148 178.5C148.5 178.5 152 178 152.5 178C153 178 152.5 176.5 152 176.5H144.5C144 176.5 141.5 179.5 141 179.5Z" fill="#FFB27D"/>
<path d="M82 169.5C81 169 71.0801 143.843 69.5 125.5L98 144.5C98 144.5 97.5 152.5 98 153C98.5 153.5 135 176 135 176L133.5 185.5C133.5 185.5 83 170 82 169.5Z" fill="#2A4E96"/>
<path d="M83.8563 31.9328C82.4482 32.4104 74 38.1414 74 40.0518V59.6329C74 60.5881 76.8161 63.9312 77.2854 63.4536C77.7548 62.976 80.5708 59.6329 80.5708 58.6777C80.5708 57.7225 80.1015 51.5139 80.5708 51.5139H82.9176C83.8563 51.5139 83.8563 55.3346 84.3256 54.857C84.795 54.3794 89.0191 46.2604 89.9578 46.2604H98.406C99.814 46.2604 105.916 49.1259 106.854 49.6035C107.793 50.0811 112.017 45.7828 112.956 44.8276C113.894 43.8725 99.6153 32.548 98.406 31.9328C97.1967 31.3175 92.7738 30.5 91.3658 30.5C89.9578 30.5 85.2643 31.4552 83.8563 31.9328Z" fill="#AA413E"/>
<path d="M98.406 46.2605C99.814 46.2605 105.915 49.126 106.854 49.6036C106.854 49.6036 103.5 60.5463 103 62C102.5 63.4537 98 73.5 97 74C96 74.5 90.5 74.5 89.5 74C88.5 73.5 77.2854 63.4537 77.2854 63.4537C77.7547 62.9761 80.5708 59.633 80.5708 58.6778C80.5708 57.7226 80.1015 51.514 80.5708 51.514H82.9176C83.8562 51.514 83.8562 55.3347 84.3256 54.8571C84.7949 54.3795 89.019 46.2605 89.9577 46.2605H98.406Z" fill="#FFB27D"/>
<path d="M157.5 166.5C157 166.5 139.5 167 139.5 167L138.5 174.5C138.5 174.5 156 175 156.5 175C157 175 160.5 178 161 178H165.5C166 178 165.5 175.5 165.5 175C165.5 174.5 158 166.5 157.5 166.5Z" fill="#ED975D"/>
<path d="M140 165.39C140 164.896 114.5 155.5 114.5 155.5L114.5 163.907C114.5 163.907 133.5 175.5 134.5 176C135.5 176.5 138 175 138.5 174.5C139 174 140 165.885 140 165.39Z" fill="#233862"/>
<path d="M407.5 361.5H391C389 361.5 394.5 358 398.5 354C401.099 350.081 402.467 344.194 401 337.5L411.5 331.5C416.239 335.6 417.75 338.761 418 345C418 345 412 350.5 411.5 351.5C411 352.5 408.5 361.5 407.5 361.5Z" fill="#233862"/>
<path d="M311.5 175C311.482 175.06 321.546 279.934 324.5 346L341 349.5C349.863 315.414 353.419 295.667 355.5 258.5L319.5 176C319.5 176 311.518 174.94 311.5 175Z" fill="#2A4E96"/>
<path d="M319.5 175C319.5 175 312.018 174.94 312 175L316 222.5L353.5 281L356 258.5L319.5 175Z" fill="#233862"/>
<path d="M399 338.5L356 259L336.5 218L319.5 175C343.18 177.879 354.368 175.398 371.5 167C372.228 192.145 374.964 207.273 385.5 232.5C385.5 232.5 391.595 243.189 395.5 249.5C399.405 255.811 416.587 328.344 413.5 330.5C410.413 332.656 399 338.5 399 338.5Z" fill="#2A4E96"/>
<path d="M320.5 175.5L309.5 175C309.5 175 311 114 311 108C311 102 314 81.5 315 77C316 72.5 332 55 332.5 54.5C333 54 342 56 343.5 56C345 56 356.5 48.5 357 49C357.5 49.5 378 66 378.5 68C379 70 397.5 133.5 397.5 135C397.5 136.5 389.5 178.5 388.5 178.5C387.5 178.5 379 174.5 378.5 174C378 173.5 379.5 137.5 379.5 136C379.5 134.5 372.5 124 371 124C369.5 124 373 164.013 372 167.5C371 170.987 342.139 178.889 320.5 175.5Z" fill="#F99746"/>
<path d="M353.5 96.5C351.511 121.825 354.916 134.518 372 153.5L371 123.5L353.5 96.5Z" fill="#DE7F33"/>
<path d="M287 91.5001C288 91.5 315 77.5001 315 77.5001L311 108C311 108 287 114.5 283 112C279 109.5 256.672 88.8484 244.5 71.5001C244.5 71.5001 242.5 66.5001 244.5 64.0001C246.5 61.5001 249 60.0001 250 60.5001C251 61.0001 286 91.5002 287 91.5001Z" fill="#DE7F33"/>
<path d="M235.5 56.5001C236 57.0001 243 66.0001 243.5 66.0002C244 66.0003 248.5 61.0003 249 60.5002C249.5 60.0001 246 51.5001 245.5 51.0001C245 50.5001 233.5 45 234 46.5001C234.5 48.0002 241 58.5001 240.5 58.0001C240 57.5001 237 55.0001 236.5 54.5001C236 54.0001 235 56.0001 235.5 56.5001Z" fill="#FFB27D"/>
<path d="M350.697 38.5C351.176 38.5 356.979 48.4857 356.5 49C356.021 49.5143 343.507 56.5 343.507 56.5C343.507 56.5 335.479 55.0143 335 54.5C334.521 53.9857 334.88 41.5857 335.359 41.0714C335.839 40.5571 350.218 38.5 350.697 38.5Z" fill="#FFB27D"/>
<path d="M335.359 41.0714C335.839 40.5571 350.218 38.5 350.697 38.5L348 39.5L335 47.5L335.359 41.0714Z" fill="#ED985F"/>
<path d="M327.5 38.5001C327 37.5002 327 17.0001 327 16.5001C327 16 338 13.0001 338.5 13.5001C339 14.0001 345.5 23.5001 346 23.5001C346.5 23.5001 347.5 20.5001 348 20.5001C348.5 20.5001 351 21.5001 351 22.0001C351 22.5001 349 28.0001 349.5 28.5001C350 29.0001 353 31.0001 353 31.5001C353 32.0001 350.5 38.5001 350.5 38.5001L335 41.0001C335 41.0001 332 41.4024 331 41.5001C330 41.5978 328 39.5 327.5 38.5001Z" fill="#FFB27D"/>
<path d="M349.5 28.5001C350 29.0001 353 31.0001 353 31.5001C353 31.5001 359 22.0001 360 20C361 17.9999 360 4.5 360 3.5C360 2.5 352 0 351 0H329C327.5 0 320.5 4.5 320 5.5C319.5 6.5 319 9.5 320 12C321 14.5 327 16.5001 327 16.5001C327 16 338 13.0001 338.5 13.5001C339 14.0001 345.5 23.5001 346 23.5001C346.5 23.5001 347.5 20.5001 348 20.5001C348.5 20.5001 351 21.5001 351 22.0001C351 22.5001 349 28.0001 349.5 28.5001Z" fill="#2C3A64"/>
<path d="M377.5 194C378.5 195 389.355 180.009 388 178.5C386.645 176.991 381 175 380.5 175C380 175 375.5 179 375.5 180V187C375.5 188 379.5 183.5 379.5 184C379.5 184.5 378.5 186.5 378 187.5C377.5 188.5 376.5 193 377.5 194Z" fill="#FFB27D"/>
<rect x="8" y="226" width="102" height="27" rx="5" fill="#F99746"/>
<path d="M113 361.5L91 253H98.5L116 361.5H113Z" fill="#EFCBAB"/>
<path d="M3 362L25 253H17.5L0 362H3Z" fill="#EFCBAB"/>
<path d="M24 253L16.5 259.5L17.5 253H24Z" fill="#CF9F7B"/>
<path d="M92 253L99.5 259.5L98.5 253H92Z" fill="#CF9F7B"/>
</svg>
