<svg width="24" height="24" viewBox="0 0 24 24" fill="none" xmlns="http://www.w3.org/2000/svg">
<mask id="path-1-inside-1_135_1985" fill="white">
<path fill-rule="evenodd" clip-rule="evenodd" d="M12 24C12 24 21 13.9706 21 9C21 4.02944 16.9706 0 12 0C7.02944 0 3 4.02944 3 9C3 13.9706 12 24 12 24ZM12 11C13.1046 11 14 10.1046 14 9C14 7.89543 13.1046 7 12 7C10.8954 7 10 7.89543 10 9C10 10.1046 10.8954 11 12 11Z"/>
</mask>
<path d="M12 24L10.5115 25.3358L12 26.9946L13.4885 25.3358L12 24ZM19 9C19 9.74229 18.6295 10.944 17.8155 12.5254C17.0348 14.0421 15.972 15.6726 14.8763 17.1963C13.7857 18.7127 12.6909 20.0843 11.8664 21.0789C11.4551 21.5752 11.1131 21.9751 10.8753 22.2495C10.7565 22.3866 10.6638 22.4922 10.6017 22.5626C10.5706 22.5977 10.5472 22.6241 10.532 22.6412C10.5244 22.6498 10.5188 22.656 10.5154 22.6599C10.5137 22.6618 10.5125 22.6631 10.5118 22.6639C10.5115 22.6642 10.5113 22.6644 10.5112 22.6645C10.5112 22.6645 10.5113 22.6645 10.5112 22.6645C10.5113 22.6644 10.5115 22.6642 12 24C13.4885 25.3358 13.4887 25.3355 13.489 25.3353C13.4891 25.3351 13.4894 25.3349 13.4896 25.3346C13.4901 25.334 13.4907 25.3333 13.4915 25.3325C13.493 25.3308 13.4951 25.3285 13.4977 25.3256C13.5029 25.3197 13.5102 25.3115 13.5196 25.3009C13.5385 25.2798 13.5656 25.2492 13.6004 25.2098C13.6701 25.1308 13.7708 25.016 13.8981 24.8692C14.1525 24.5756 14.5137 24.1532 14.9461 23.6316C15.8091 22.5903 16.9643 21.1439 18.1237 19.5317C19.278 17.9267 20.4652 16.1178 21.372 14.356C22.2455 12.6589 23 10.743 23 9H19ZM12 2C15.866 2 19 5.13401 19 9H23C23 2.92487 18.0751 -2 12 -2V2ZM5 9C5 5.13401 8.13401 2 12 2V-2C5.92487 -2 1 2.92487 1 9H5ZM12 24C13.4885 22.6642 13.4887 22.6644 13.4888 22.6645C13.4887 22.6645 13.4888 22.6645 13.4888 22.6645C13.4887 22.6644 13.4885 22.6642 13.4882 22.6639C13.4875 22.6631 13.4863 22.6618 13.4846 22.6599C13.4812 22.656 13.4756 22.6498 13.468 22.6412C13.4528 22.6241 13.4293 22.5977 13.3983 22.5626C13.3362 22.4922 13.2435 22.3866 13.1247 22.2495C12.8869 21.9751 12.5449 21.5752 12.1336 21.0789C11.3091 20.0843 10.2143 18.7127 9.12372 17.1963C8.02796 15.6726 6.9652 14.0421 6.18451 12.5254C5.37055 10.944 5 9.74229 5 9H1C1 10.743 1.75445 12.6589 2.62799 14.356C3.5348 16.1178 4.72204 17.9267 5.87628 19.5317C7.03574 21.1439 8.19089 22.5903 9.05395 23.6316C9.48634 24.1532 9.84749 24.5756 10.1019 24.8692C10.2292 25.016 10.3299 25.1308 10.3996 25.2098C10.4344 25.2492 10.4615 25.2798 10.4804 25.3009C10.4898 25.3115 10.4971 25.3197 10.5023 25.3256C10.5049 25.3285 10.507 25.3308 10.5085 25.3325C10.5093 25.3333 10.5099 25.334 10.5104 25.3346C10.5106 25.3349 10.5109 25.3351 10.511 25.3353C10.5113 25.3355 10.5115 25.3358 12 24ZM12 9V13C14.2091 13 16 11.2091 16 9H12ZM12 9H16C16 6.79086 14.2091 5 12 5V9ZM12 9V5C9.79086 5 8 6.79086 8 9H12ZM12 9H8C8 11.2091 9.79086 13 12 13V9Z" fill="black" mask="url(#path-1-inside-1_135_1985)"/>
</svg>
