<svg width="24" height="24" viewBox="0 0 24 24" fill="none" xmlns="http://www.w3.org/2000/svg">
<rect width="24" height="24" fill="white"/>
<path d="M17.8498 2.45234C17.3398 2.56109 17.1973 2.66609 16.2636 3.58859L15.4048 4.43984L17.4823 6.50983L19.5561 8.57983L20.3661 7.76983C21.2361 6.89983 21.3898 6.69733 21.5286 6.24358C21.5961 6.03358 21.6036 5.92109 21.5923 5.56859C21.5623 4.79609 21.4348 4.57859 20.3848 3.53609C19.5561 2.71109 19.4023 2.60234 18.8773 2.46734C18.5436 2.38109 18.1986 2.37734 17.8498 2.45234Z" fill="black"/>
<path d="M8.91339 10.9348L3.59212 16.256L2.99587 18.6335C2.65086 20.021 2.39961 21.086 2.39961 21.191C2.39961 21.4498 2.54211 21.5923 2.80086 21.5923C2.90586 21.5923 3.97087 21.341 5.35838 20.996L7.73589 20.3998L13.0572 15.0785C15.9822 12.1535 18.3747 9.74604 18.3747 9.72354C18.3747 9.67479 14.3172 5.61729 14.2684 5.61729C14.2459 5.61729 11.8384 8.00979 8.91339 10.9348Z" fill="black"/>
</svg>
