<svg width="24" height="24" viewBox="0 0 24 24" fill="none" xmlns="http://www.w3.org/2000/svg">
<mask id="path-1-inside-1_121_1516" fill="white">
<path fill-rule="evenodd" clip-rule="evenodd" d="M8.99986 1C8.99986 0.447716 9.44758 0 9.99986 0H13.9999C14.5521 0 14.9999 0.447715 14.9999 1V3.51212C15.9525 3.84884 16.8316 4.34142 17.6064 4.95921L20.1338 3.5C20.6121 3.22386 21.2237 3.38773 21.4999 3.86603L23.4999 7.33013C23.776 7.80842 23.6121 8.42001 23.1338 8.69615L20.7881 10.0504C20.9268 10.6782 20.9999 11.3306 20.9999 12C20.9999 12.4538 20.9663 12.8997 20.9015 13.3355L22.9184 14.5C23.3967 14.7762 23.5606 15.3877 23.2845 15.866L21.2845 19.3301C21.0083 19.8084 20.3967 19.9723 19.9184 19.6962L18.0807 18.6351C17.1977 19.4447 16.1527 20.0804 14.9999 20.4879V23C14.9999 23.5523 14.5521 24 13.9999 24H9.99986C9.44758 24 8.99986 23.5523 8.99986 23V20.4879C7.84703 20.0804 6.802 19.4447 5.91905 18.6351L4.08128 19.6962C3.60299 19.9723 2.9914 19.8084 2.71525 19.3301L0.715254 15.866C0.439112 15.3877 0.602987 14.7761 1.08128 14.5L3.09827 13.3355C3.03345 12.8997 2.99986 12.4538 2.99986 12C2.99986 11.3306 3.07295 10.6782 3.21159 10.0505L0.86589 8.69617C0.387597 8.42002 0.223722 7.80843 0.499864 7.33014L2.49986 3.86604C2.77601 3.38775 3.3876 3.22387 3.86589 3.50001L6.3933 4.95922C7.16811 4.34142 8.04718 3.84884 8.99986 3.51212V1ZM11.9999 15C13.6567 15 14.9999 13.6569 14.9999 12C14.9999 10.3431 13.6567 9 11.9999 9C10.343 9 8.99989 10.3431 8.99989 12C8.99989 13.6569 10.343 15 11.9999 15Z"/>
</mask>
<path d="M14.9999 3.51212H12.9999V4.92647L14.3334 5.3978L14.9999 3.51212ZM17.6064 4.95921L16.3596 6.52297L17.4256 7.37299L18.6064 6.69126L17.6064 4.95921ZM20.1338 3.5L19.1338 1.76795L19.1338 1.76795L20.1338 3.5ZM21.4999 3.86603L19.7678 4.86602L19.7678 4.86603L21.4999 3.86603ZM23.4999 7.33013L25.2319 6.33013L25.2319 6.33013L23.4999 7.33013ZM23.1338 8.69615L22.1338 6.9641L22.1338 6.9641L23.1338 8.69615ZM20.7881 10.0504L19.7881 8.31839L18.5192 9.051L18.8352 10.4817L20.7881 10.0504ZM20.9015 13.3355L18.9232 13.0412L18.723 14.3872L19.9015 15.0676L20.9015 13.3355ZM22.9184 14.5L21.9184 16.2321L21.9184 16.2321L22.9184 14.5ZM23.2845 15.866L25.0165 16.866L25.0165 16.866L23.2845 15.866ZM21.2845 19.3301L19.5524 18.3301L19.5524 18.3301L21.2845 19.3301ZM19.9184 19.6962L18.9184 21.4282L18.9184 21.4282L19.9184 19.6962ZM18.0807 18.6351L19.0807 16.9031L17.8102 16.1696L16.729 17.161L18.0807 18.6351ZM14.9999 20.4879L14.3334 18.6022L12.9999 19.0735V20.4879H14.9999ZM8.99986 20.4879H10.9999V19.0735L9.66636 18.6022L8.99986 20.4879ZM5.91905 18.6351L7.27073 17.161L6.1895 16.1696L4.91905 16.9031L5.91905 18.6351ZM4.08128 19.6962L5.08128 21.4282L5.08128 21.4282L4.08128 19.6962ZM2.71525 19.3301L0.983203 20.3301L0.983203 20.3301L2.71525 19.3301ZM0.715254 15.866L2.4473 14.866L2.4473 14.866L0.715254 15.866ZM1.08128 14.5L0.0812791 12.7679L0.0812774 12.7679L1.08128 14.5ZM3.09827 13.3355L4.09827 15.0675L5.27672 14.3872L5.0765 13.0412L3.09827 13.3355ZM3.21159 10.0505L5.16453 10.4817L5.48049 9.05101L4.21159 8.3184L3.21159 10.0505ZM0.86589 8.69617L1.86589 6.96412L1.86589 6.96412L0.86589 8.69617ZM0.499864 7.33014L2.23191 8.33014L2.23191 8.33014L0.499864 7.33014ZM2.49986 3.86604L0.767813 2.86604L0.767813 2.86604L2.49986 3.86604ZM3.86589 3.50001L2.86589 5.23206L2.86589 5.23207L3.86589 3.50001ZM6.3933 4.95922L5.3933 6.69127L6.5741 7.373L7.64016 6.52297L6.3933 4.95922ZM8.99986 3.51212L9.66636 5.3978L10.9999 4.92647V3.51212H8.99986ZM9.99986 -2C8.34301 -2 6.99986 -0.656853 6.99986 1H10.9999C10.9999 1.55228 10.5522 2 9.99986 2V-2ZM13.9999 -2H9.99986V2H13.9999V-2ZM16.9999 1C16.9999 -0.656855 15.6567 -2 13.9999 -2V2C13.4476 2 12.9999 1.55229 12.9999 1H16.9999ZM16.9999 3.51212V1H12.9999V3.51212H16.9999ZM18.8533 3.39545C17.9072 2.6411 16.8326 2.03863 15.6664 1.62644L14.3334 5.3978C15.0725 5.65906 15.756 6.04174 16.3596 6.52297L18.8533 3.39545ZM19.1338 1.76795L16.6064 3.22716L18.6064 6.69126L21.1338 5.23205L19.1338 1.76795ZM23.2319 2.86603C22.4035 1.43115 20.5687 0.939523 19.1338 1.76795L21.1338 5.23205C20.6555 5.50819 20.044 5.34432 19.7678 4.86602L23.2319 2.86603ZM25.2319 6.33013L23.2319 2.86603L19.7678 4.86603L21.7678 8.33013L25.2319 6.33013ZM24.1338 10.4282C25.5687 9.59978 26.0603 7.76501 25.2319 6.33013L21.7678 8.33013C21.4917 7.85183 21.6555 7.24024 22.1338 6.9641L24.1338 10.4282ZM21.7881 11.7825L24.1338 10.4282L22.1338 6.9641L19.7881 8.31839L21.7881 11.7825ZM22.9999 12C22.9999 11.1846 22.9108 10.3876 22.7411 9.61915L18.8352 10.4817C18.9428 10.9688 18.9999 11.4765 18.9999 12H22.9999ZM22.8797 13.6298C22.959 13.0969 22.9999 12.5526 22.9999 12H18.9999C18.9999 12.355 18.9736 12.7026 18.9232 13.0412L22.8797 13.6298ZM23.9184 12.768L21.9015 11.6035L19.9015 15.0676L21.9184 16.2321L23.9184 12.768ZM25.0165 16.866C25.845 15.4312 25.3533 13.5964 23.9184 12.768L21.9184 16.2321C21.4402 15.9559 21.2763 15.3443 21.5524 14.866L25.0165 16.866ZM23.0165 20.3301L25.0165 16.866L21.5524 14.866L19.5524 18.3301L23.0165 20.3301ZM18.9184 21.4282C20.3533 22.2566 22.1881 21.765 23.0165 20.3301L19.5524 18.3301C19.8286 17.8518 20.4402 17.688 20.9184 17.9641L18.9184 21.4282ZM17.0807 20.3672L18.9184 21.4282L20.9184 17.9641L19.0807 16.9031L17.0807 20.3672ZM15.6664 22.3736C17.0776 21.8748 18.3547 21.0974 19.4323 20.1092L16.729 17.161C16.0408 17.7921 15.2278 18.2861 14.3334 18.6022L15.6664 22.3736ZM16.9999 23V20.4879H12.9999V23H16.9999ZM13.9999 26C15.6567 26 16.9999 24.6569 16.9999 23H12.9999C12.9999 22.4477 13.4476 22 13.9999 22V26ZM9.99986 26H13.9999V22H9.99986V26ZM6.99986 23C6.99986 24.6569 8.34301 26 9.99986 26V22C10.5521 22 10.9999 22.4477 10.9999 23H6.99986ZM6.99986 20.4879V23H10.9999V20.4879H6.99986ZM4.56738 20.1092C5.64507 21.0974 6.92217 21.8748 8.33337 22.3736L9.66636 18.6022C8.77189 18.2861 7.95893 17.7921 7.27073 17.161L4.56738 20.1092ZM5.08128 21.4282L6.91906 20.3672L4.91905 16.9031L3.08128 17.9641L5.08128 21.4282ZM0.983203 20.3301C1.81163 21.765 3.6464 22.2566 5.08128 21.4282L3.08128 17.9641C3.55957 17.688 4.17116 17.8518 4.4473 18.3301L0.983203 20.3301ZM-1.0168 16.866L0.983203 20.3301L4.4473 18.3301L2.4473 14.866L-1.0168 16.866ZM0.0812774 12.7679C-1.3536 13.5964 -1.84522 15.4311 -1.0168 16.866L2.4473 14.866C2.72345 15.3443 2.55957 15.9559 2.08128 16.232L0.0812774 12.7679ZM2.09827 11.6034L0.0812791 12.7679L2.08128 16.232L4.09827 15.0675L2.09827 11.6034ZM0.999864 12C0.999864 12.5526 1.04077 13.0969 1.12004 13.6298L5.0765 13.0412C5.02613 12.7026 4.99986 12.355 4.99986 12H0.999864ZM1.25864 9.61917C1.08893 10.3876 0.999864 11.1846 0.999864 12H4.99986C4.99986 11.4766 5.05697 10.9688 5.16453 10.4817L1.25864 9.61917ZM-0.13411 10.4282L2.21158 11.7825L4.21159 8.3184L1.86589 6.96412L-0.13411 10.4282ZM-1.23219 6.33014C-2.06061 7.76502 -1.56899 9.59979 -0.134109 10.4282L1.86589 6.96412C2.34418 7.24026 2.50806 7.85185 2.23191 8.33014L-1.23219 6.33014ZM0.767813 2.86604L-1.23219 6.33014L2.23191 8.33014L4.23191 4.86604L0.767813 2.86604ZM4.86589 1.76796C3.43101 0.939536 1.59624 1.43116 0.767813 2.86604L4.23191 4.86604C3.95577 5.34433 3.34418 5.50821 2.86589 5.23206L4.86589 1.76796ZM7.3933 3.22717L4.86589 1.76796L2.86589 5.23207L5.3933 6.69127L7.3933 3.22717ZM8.33337 1.62644C7.16717 2.03863 6.09252 2.6411 5.14644 3.39546L7.64016 6.52297C8.2437 6.04174 8.92718 5.65906 9.66636 5.3978L8.33337 1.62644ZM6.99986 1V3.51212H10.9999V1H6.99986ZM12.9999 12C12.9999 12.5523 12.5522 13 11.9999 13V17C14.7613 17 16.9999 14.7614 16.9999 12H12.9999ZM11.9999 11C12.5522 11 12.9999 11.4477 12.9999 12H16.9999C16.9999 9.23858 14.7613 7 11.9999 7V11ZM10.9999 12C10.9999 11.4477 11.4476 11 11.9999 11V7C9.23847 7 6.99989 9.23858 6.99989 12H10.9999ZM11.9999 13C11.4476 13 10.9999 12.5523 10.9999 12H6.99989C6.99989 14.7614 9.23847 17 11.9999 17V13Z" fill="#003DFF" mask="url(#path-1-inside-1_121_1516)"/>
</svg>
