<svg width="32" height="32" viewBox="0 0 32 32" fill="none" xmlns="http://www.w3.org/2000/svg">
<g clip-path="url(#clip0_494_2188)">
<path fill-rule="evenodd" clip-rule="evenodd" d="M15.6718 26.6274C15.7458 26.6141 15.9305 26.529 16.0218 26.4661C16.2855 26.2847 16.5005 25.9484 16.5872 25.5813C16.6304 25.3991 16.6413 25.2416 16.6533 24.634L16.6649 24.0473L16.8735 23.5406C17.3885 22.2902 17.642 21.7267 18.0944 20.8273C18.4914 20.0379 18.847 19.4105 19.1939 18.8873C19.5067 18.4154 19.6843 18.2001 20.167 17.7073C20.6377 17.2268 20.8132 16.9949 21.1107 16.4606C21.1597 16.3726 21.2047 16.293 21.2108 16.2838C21.2193 16.2709 21.2673 16.284 21.4144 16.3394C21.5343 16.3846 21.647 16.4176 21.7134 16.427C21.9556 16.4611 24.099 16.4805 24.7534 16.4545C25.0731 16.4418 25.1822 16.4247 25.3955 16.3539C25.6748 16.2611 25.916 16.1119 26.1275 15.901C26.388 15.6412 26.5716 15.2972 26.6208 14.9768C26.6556 14.75 26.6661 13.8219 26.666 10.974C26.666 8.30045 26.6566 7.37265 26.6264 7.0473C26.5996 6.75954 26.5687 6.65445 26.4486 6.44329C26.263 6.11686 25.9358 5.80694 25.6075 5.64637C25.4354 5.56221 25.3189 5.52985 25.0995 5.50519C24.8895 5.48161 22.0603 5.48022 21.7934 5.50357C21.5839 5.52191 21.4362 5.56923 21.1616 5.70609L20.9801 5.79653L20.4468 5.7323C18.3416 5.47879 16.8603 5.38489 14.3734 5.3473C12.679 5.32169 11.2908 5.33282 10.9811 5.3745C10.48 5.44194 9.75205 5.64223 9.31345 5.83337C8.41025 6.22697 7.81863 6.77526 7.52885 7.4873C7.39355 7.81973 7.3467 8.08037 7.3371 8.55397L7.33007 8.90063L7.2351 9.01194C6.75794 9.57113 6.58062 9.87407 6.4337 10.3811C6.3743 10.586 6.36699 10.6633 6.36689 11.0873C6.36677 11.5354 6.37349 11.5991 6.45547 11.9281L6.50885 12.1423L6.37203 12.3542C6.21471 12.5978 6.09983 12.8211 6.04202 12.9957C5.95601 13.2554 5.91086 13.6207 5.92441 13.9473C5.94399 14.4191 6.05994 14.7797 6.34643 15.2597L6.4573 15.4454L6.40151 15.6775C6.31689 16.0296 6.30259 16.1415 6.3023 16.454C6.30199 16.7725 6.33102 16.9806 6.40819 17.2131C6.7307 18.1849 7.62101 18.794 9.02011 18.9999C9.36035 19.05 9.71822 19.0611 10.4034 19.043C11.5419 19.013 11.8089 18.9823 13.1401 18.7282C13.2721 18.703 13.4185 18.6781 13.4654 18.6729L13.5506 18.6634L13.5414 18.762C13.5257 18.9296 13.4675 19.3172 13.4255 19.534C13.3589 19.8775 13.2788 20.1729 12.8997 21.474C12.7104 22.1238 12.6179 22.5498 12.5872 22.914C12.5693 23.126 12.5697 23.9733 12.5877 24.1783C12.618 24.5219 12.6868 24.7613 12.8548 25.1073C13.0866 25.5847 13.3564 25.9013 13.7659 26.1763C14.0585 26.3727 14.4342 26.5313 14.7201 26.579C14.9782 26.622 15.5425 26.6507 15.6718 26.6274ZM15.3244 25.39C15.3363 25.3768 15.3553 25.3398 15.3666 25.3078C15.4083 25.1895 15.4166 25.0112 15.4074 24.4273L15.3984 23.8606L15.5791 23.4029C16.3159 21.5356 17.0165 20.0618 17.7435 18.8496C18.0406 18.3543 18.375 17.8646 18.6629 17.5031C18.8444 17.2753 18.9669 17.1399 19.2863 16.814C19.6757 16.4166 19.7774 16.282 19.9731 15.9044C20.1081 15.6441 20.2059 15.4158 20.2417 15.2776C20.2717 15.1617 20.2719 15.1842 20.2378 14.794C20.227 14.6705 20.222 13.5526 20.2204 10.9073C20.2182 7.08106 20.2171 7.00309 20.1667 6.96578C20.1432 6.94837 19.9418 6.92059 19.5068 6.87477C18.8995 6.81079 17.9306 6.72246 17.5334 6.69487C16.5286 6.62506 12.3991 6.53757 11.7801 6.57298C10.7315 6.63298 9.90575 6.85778 9.32957 7.24017C9.17045 7.34578 8.95494 7.54419 8.85242 7.67948C8.76478 7.79514 8.67282 7.98223 8.64055 8.11051C8.58105 8.34714 8.57345 8.67402 8.62127 8.94063C8.65173 9.11045 8.65017 9.27023 8.61725 9.35522C8.57359 9.46787 8.51363 9.54171 8.23393 9.8273C7.92063 10.1472 7.85438 10.2316 7.74767 10.4473C7.62675 10.6917 7.61345 10.7539 7.61345 11.0753C7.61345 11.3935 7.63022 11.5084 7.70797 11.7229C7.85509 12.1288 7.87273 12.2052 7.85294 12.3501C7.8367 12.4692 7.79163 12.5493 7.59127 12.8151C7.38485 13.089 7.34178 13.1578 7.27971 13.3128C7.11209 13.7315 7.13651 14.1097 7.35555 14.4872C7.41611 14.5916 7.45193 14.6416 7.66091 14.914C7.80367 15.1 7.82649 15.1525 7.82665 15.2952C7.82681 15.4382 7.79549 15.5643 7.70849 15.7706C7.58134 16.0722 7.5427 16.2391 7.54416 16.4806C7.54575 16.7422 7.60908 16.9162 7.7809 17.1309C7.92611 17.3124 8.08895 17.4438 8.27129 17.5266C8.76378 17.75 9.53279 17.8452 10.588 17.8132C11.3029 17.7916 11.6162 17.7494 12.9534 17.4947C13.6689 17.3585 13.8963 17.3435 14.0861 17.4204C14.4425 17.5647 14.6378 17.82 14.736 18.2699C14.7629 18.3932 14.766 18.4443 14.7662 18.7673C14.7666 19.1457 14.7612 19.2066 14.6923 19.614C14.6138 20.0784 14.5238 20.4337 14.2667 21.294C13.968 22.2937 13.8584 22.7582 13.8126 23.2182C13.7892 23.4526 13.8029 23.9006 13.8393 24.094C13.9336 24.5954 14.1703 24.976 14.5156 25.1816C14.6467 25.2596 14.7805 25.3111 14.9949 25.3659C15.2074 25.4202 15.2914 25.4264 15.3244 25.39ZM24.8534 15.2014C24.9795 15.1879 25.04 15.171 25.1107 15.1296C25.1834 15.0869 25.3287 14.9352 25.3533 14.8763C25.4064 14.7493 25.4068 14.7203 25.4068 10.994C25.4068 7.13166 25.4077 7.18433 25.3397 7.04525C25.2929 6.94961 25.1448 6.81243 25.0447 6.77206L24.9668 6.74063L23.5601 6.74158C22.1165 6.74257 21.9029 6.74906 21.7868 6.79551C21.7192 6.82255 21.5872 6.96302 21.5419 7.05613C21.5229 7.09527 21.5009 7.1693 21.4932 7.22063C21.4675 7.39043 21.4548 8.89033 21.4541 11.8385L21.4534 14.7496L21.5234 14.8514C21.616 14.986 21.7433 15.1147 21.8154 15.1466C21.8474 15.1608 21.9336 15.1791 22.0069 15.1873C22.166 15.2052 24.7003 15.2178 24.8534 15.2014Z" fill="#FF8585"/>
<path fill-rule="evenodd" clip-rule="evenodd" d="M32 16L32 -1.15605e-05L15.9967 0.00333339L-0.00666241 0.00666533L-0.00999714 16.0033L-0.0133449 32L15.9933 32L32 32L32 16ZM31.9934 15.9933C31.9934 7.19333 31.9918 3.59533 31.99 7.99777C31.9882 12.4002 31.9882 19.6002 31.99 23.9978C31.9918 28.3953 31.9934 24.7933 31.9934 15.9933ZM15.6717 26.6268C15.7456 26.6134 15.9304 26.5283 16.0217 26.4655C16.2854 26.2841 16.5003 25.9477 16.5871 25.5807C16.6302 25.3985 16.6412 25.2409 16.6532 24.6333L16.6647 24.0467L16.8734 23.54C17.3884 22.2896 17.6419 21.726 18.0943 20.8267C18.4913 20.0372 18.8469 19.4098 19.1937 18.8867C19.5066 18.4148 19.6842 18.1995 20.1669 17.7067C20.6376 17.2261 20.8131 16.9943 21.1105 16.46C21.1595 16.372 21.2046 16.2924 21.2107 16.2831C21.2192 16.2703 21.2672 16.2834 21.4142 16.3388C21.5342 16.384 21.6469 16.4169 21.7133 16.4263C21.9555 16.4605 24.0989 16.4799 24.7533 16.4539C25.073 16.4412 25.1821 16.4241 25.3953 16.3532C25.6747 16.2605 25.9159 16.1112 26.1274 15.9004C26.3879 15.6406 26.5715 15.2966 26.6207 14.9762C26.6555 14.7494 26.666 13.8212 26.6659 10.9733C26.6659 8.29981 26.6565 7.37201 26.6263 7.04667C26.5995 6.75891 26.5686 6.65381 26.4485 6.44265C26.2629 6.11623 25.9357 5.80631 25.6074 5.64573C25.4352 5.56157 25.3188 5.52921 25.0993 5.50456C24.8893 5.48097 22.0602 5.47959 21.7933 5.50293C21.5837 5.52128 21.4361 5.5686 21.1615 5.70545L20.98 5.79589L20.4467 5.73167C18.3415 5.47816 16.8602 5.38425 14.3733 5.34667C12.6789 5.32105 11.2907 5.33219 10.981 5.37387C10.4798 5.44131 9.75194 5.6416 9.31334 5.83273C8.41014 6.22633 7.81852 6.77463 7.52874 7.48667C7.39344 7.81909 7.34659 8.07973 7.33699 8.55333L7.32996 8.9L7.23499 9.01131C6.75783 9.57049 6.58051 9.87344 6.43359 10.3804C6.37419 10.5854 6.36688 10.6627 6.36678 11.0867C6.36666 11.5348 6.37338 11.5985 6.45536 11.9275L6.50874 12.1417L6.37192 12.3536C6.2146 12.5972 6.09972 12.8205 6.04191 12.9951C5.9559 13.2547 5.91075 13.6201 5.9243 13.9467C5.94388 14.4185 6.05983 14.7791 6.34632 15.2591L6.45719 15.4448L6.4014 15.6769C6.31678 16.029 6.30248 16.1408 6.30219 16.4533C6.30188 16.7719 6.33091 16.98 6.40808 17.2125C6.73059 18.1843 7.6209 18.7933 9.02 18.9993C9.36024 19.0493 9.71811 19.0605 10.4033 19.0424C11.5418 19.0124 11.8088 18.9816 13.14 18.7275C13.272 18.7023 13.4184 18.6775 13.4653 18.6723L13.5505 18.6628L13.5413 18.7614C13.5256 18.929 13.4674 19.3165 13.4254 19.5333C13.3588 19.8768 13.2787 20.1723 12.8996 21.4733C12.7103 22.1232 12.6178 22.5492 12.5871 22.9133C12.5692 23.1254 12.5696 23.9727 12.5876 24.1777C12.6179 24.5213 12.6867 24.7607 12.8547 25.1067C13.0865 25.5841 13.3563 25.9007 13.7658 26.1756C14.0584 26.3721 14.4341 26.5307 14.72 26.5784C14.9781 26.6214 15.5424 26.6501 15.6717 26.6268ZM15.3243 25.3893C15.3362 25.3761 15.3552 25.3391 15.3665 25.3071C15.4082 25.1889 15.4165 25.0105 15.4073 24.4267L15.3983 23.86L15.5789 23.4023C16.3158 21.5349 17.0164 20.0611 17.7434 18.849C18.0405 18.3536 18.3749 17.8639 18.6628 17.5025C18.8443 17.2747 18.9668 17.1392 19.2862 16.8133C19.6756 16.416 19.7773 16.2814 19.973 15.9038C20.1079 15.6435 20.2057 15.4152 20.2416 15.2769C20.2716 15.1611 20.2718 15.1835 20.2377 14.7933C20.2269 14.6699 20.2219 13.552 20.2203 10.9067C20.2181 7.08043 20.217 7.00245 20.1666 6.96515C20.1431 6.94773 19.9417 6.91996 19.5067 6.87413C18.8994 6.81016 17.9305 6.72183 17.5333 6.69424C16.5285 6.62443 12.399 6.53693 11.78 6.57235C10.7313 6.63235 9.90564 6.85715 9.32946 7.23953C9.17034 7.34515 8.95483 7.54356 8.85231 7.67885C8.76467 7.7945 8.67271 7.9816 8.64044 8.10988C8.58094 8.34651 8.57334 8.67339 8.62116 8.94C8.65162 9.10981 8.65006 9.2696 8.61714 9.35459C8.57348 9.46724 8.51352 9.54108 8.23382 9.82667C7.92052 10.1465 7.85427 10.231 7.74756 10.4467C7.62664 10.691 7.61334 10.7533 7.61334 11.0747C7.61334 11.3929 7.63011 11.5078 7.70786 11.7223C7.85498 12.1282 7.87262 12.2045 7.85283 12.3495C7.83659 12.4686 7.79152 12.5487 7.59116 12.8145C7.38474 13.0884 7.34167 13.1572 7.2796 13.3122C7.11198 13.7309 7.1364 14.1091 7.35544 14.4866C7.416 14.5909 7.45182 14.641 7.6608 14.9133C7.80356 15.0994 7.82638 15.1519 7.82654 15.2945C7.8267 15.4376 7.79538 15.5636 7.70838 15.77C7.58123 16.0715 7.54259 16.2385 7.54406 16.48C7.54564 16.7416 7.60898 16.9156 7.78079 17.1303C7.926 17.3118 8.08884 17.4432 8.27118 17.5259C8.76367 17.7494 9.53268 17.8446 10.5878 17.8126C11.3028 17.7909 11.6161 17.7487 12.9533 17.4941C13.6688 17.3578 13.8962 17.3429 14.086 17.4198C14.4424 17.5641 14.6377 17.8193 14.7359 18.2693C14.7628 18.3925 14.7659 18.4437 14.7661 18.7667C14.7664 19.145 14.7611 19.206 14.6922 19.6133C14.6137 20.0777 14.5237 20.4331 14.2666 21.2933C13.9679 22.2931 13.8583 22.7576 13.8125 23.2176C13.7891 23.452 13.8028 23.8999 13.8391 24.0933C13.9335 24.5948 14.1702 24.9754 14.5155 25.1809C14.6466 25.259 14.7804 25.3104 14.9948 25.3652C15.2073 25.4196 15.2913 25.4257 15.3243 25.3893ZM24.8533 15.2008C24.9794 15.1873 25.0399 15.1704 25.1106 15.1289C25.1833 15.0863 25.3286 14.9345 25.3532 14.8756C25.4063 14.7487 25.4067 14.7197 25.4067 10.9933C25.4067 7.13103 25.4076 7.18369 25.3396 7.04461C25.2928 6.94897 25.1447 6.8118 25.0446 6.77143L24.9667 6.74L23.56 6.74095C22.1164 6.74193 21.9028 6.74843 21.7867 6.79488C21.7191 6.82192 21.5871 6.96239 21.5418 7.05549C21.5228 7.09464 21.5008 7.16867 21.4931 7.22C21.4674 7.3898 21.4547 8.88969 21.454 11.8378L21.4533 14.749L21.5233 14.8508C21.6159 14.9854 21.7432 15.1141 21.8153 15.1459C21.8473 15.1601 21.9335 15.1785 22.0067 15.1867C22.1659 15.2046 24.7002 15.2171 24.8533 15.2008Z" fill="#FBFBFB"/>
</g>
<defs>
<clipPath id="clip0_494_2188">
<rect width="32" height="32" fill="white" transform="translate(32 32) rotate(-180)"/>
</clipPath>
</defs>
</svg>
