<svg width="152" height="24" viewBox="0 0 152 24" fill="none" xmlns="http://www.w3.org/2000/svg">
<path d="M12 0L15.174 7.63131L23.4127 8.2918L17.1357 13.6687L19.0534 21.7082L12 17.4L4.94658 21.7082L6.8643 13.6687L0.587322 8.2918L8.82596 7.63131L12 0Z" fill="#003DFF"/>
<path d="M44 0L47.174 7.63131L55.4127 8.2918L49.1357 13.6687L51.0534 21.7082L44 17.4L36.9466 21.7082L38.8643 13.6687L32.5873 8.2918L40.826 7.63131L44 0Z" fill="#003DFF"/>
<path d="M76 0L79.174 7.63131L87.4127 8.2918L81.1357 13.6687L83.0534 21.7082L76 17.4L68.9466 21.7082L70.8643 13.6687L64.5873 8.2918L72.826 7.63131L76 0Z" fill="#003DFF"/>
<path d="M108 0L111.174 7.63131L119.413 8.2918L113.136 13.6687L115.053 21.7082L108 17.4L100.947 21.7082L102.864 13.6687L96.5873 8.2918L104.826 7.63131L108 0Z" fill="#003DFF"/>
<path d="M140 0L143.174 7.63131L151.413 8.2918L145.136 13.6687L147.053 21.7082L140 17.4L132.947 21.7082L134.864 13.6687L128.587 8.2918L136.826 7.63131L140 0Z" fill="#003DFF"/>
</svg>
