<svg width="32" height="32" viewBox="0 0 32 32" fill="none" xmlns="http://www.w3.org/2000/svg">
<g clip-path="url(#clip0_494_2185)">
<path fill-rule="evenodd" clip-rule="evenodd" d="M16.3282 5.37258C16.2543 5.38593 16.0695 5.47105 15.9782 5.53388C15.7145 5.7153 15.4995 6.05165 15.4128 6.41866C15.3697 6.60092 15.3587 6.75844 15.3467 7.36604L15.3351 7.9527L15.1265 8.45937C14.6115 9.70981 14.358 10.2733 13.9056 11.1727C13.5086 11.9621 13.153 12.5895 12.8061 13.1127C12.4933 13.5846 12.3157 13.7999 11.833 14.2927C11.3623 14.7732 11.1868 15.0051 10.8893 15.5394C10.8403 15.6274 10.7953 15.707 10.7892 15.7162C10.7807 15.7291 10.7327 15.716 10.5857 15.6606C10.4657 15.6154 10.353 15.5824 10.2866 15.573C10.0444 15.5389 7.901 15.5195 7.24656 15.5455C6.92692 15.5582 6.81777 15.5753 6.60454 15.6461C6.32518 15.7389 6.08396 15.8881 5.87249 16.099C5.612 16.3588 5.42838 16.7028 5.37922 17.0232C5.34442 17.25 5.33393 18.1781 5.33398 21.026C5.33404 23.6996 5.3434 24.6274 5.37364 24.9527C5.40037 25.2405 5.4313 25.3456 5.55138 25.5567C5.73704 25.8831 6.06416 26.1931 6.39253 26.3536C6.56465 26.4378 6.68113 26.4702 6.90054 26.4948C7.11054 26.5184 9.9397 26.5198 10.2066 26.4964C10.4161 26.4781 10.5638 26.4308 10.8384 26.2939L11.0199 26.2035L11.5532 26.2677C13.6584 26.5212 15.1397 26.6151 17.6266 26.6527C19.321 26.6783 20.7092 26.6672 21.0189 26.6255C21.5201 26.5581 22.248 26.3578 22.6866 26.1666C23.5898 25.773 24.1814 25.2247 24.4712 24.5127C24.6065 24.1803 24.6533 23.9196 24.6629 23.446L24.6699 23.0994L24.7649 22.9881C25.2421 22.4289 25.4194 22.1259 25.5663 21.6189C25.6257 21.414 25.633 21.3367 25.6331 20.9127C25.6332 20.4646 25.6265 20.4009 25.5445 20.0719L25.4912 19.8577L25.628 19.6458C25.7853 19.4022 25.9002 19.1789 25.958 19.0043C26.044 18.7446 26.0891 18.3793 26.0756 18.0527C26.056 17.5809 25.9401 17.2203 25.6536 16.7403L25.5427 16.5546L25.5985 16.3225C25.6831 15.9704 25.6974 15.8585 25.6977 15.546C25.698 15.2275 25.669 15.0194 25.5918 14.7869C25.2693 13.8151 24.379 13.206 22.9799 13.0001C22.6397 12.95 22.2818 12.9389 21.5966 12.957C20.4581 12.987 20.1911 13.0177 18.8599 13.2718C18.7279 13.297 18.5815 13.3219 18.5346 13.3271L18.4494 13.3366L18.4586 13.238C18.4743 13.0704 18.5325 12.6828 18.5745 12.466C18.6411 12.1225 18.7212 11.8271 19.1003 10.526C19.2896 9.87618 19.3821 9.45021 19.4128 9.08603C19.4307 8.87399 19.4303 8.02668 19.4123 7.82166C19.382 7.47812 19.3132 7.2387 19.1452 6.8927C18.9134 6.41529 18.6436 6.09872 18.2341 5.82374C17.9415 5.62726 17.5658 5.46868 17.2799 5.42101C17.0218 5.37798 16.4575 5.34926 16.3282 5.37258ZM16.6756 6.61004C16.6637 6.62322 16.6447 6.66022 16.6334 6.69224C16.5917 6.81046 16.5834 6.98882 16.5926 7.5727L16.6016 8.13937L16.4209 8.59709C15.6841 10.4644 14.9835 11.9382 14.2565 13.1504C13.9594 13.6457 13.625 14.1354 13.3371 14.4969C13.1556 14.7247 13.0331 14.8601 12.7137 15.186C12.3243 15.5834 12.2226 15.718 12.0269 16.0956C11.8919 16.3559 11.7941 16.5842 11.7583 16.7224C11.7283 16.8383 11.7281 16.8158 11.7622 17.206C11.773 17.3295 11.778 18.4474 11.7796 21.0927C11.7818 24.9189 11.7829 24.9969 11.8333 25.0342C11.8568 25.0516 12.0582 25.0794 12.4932 25.1252C13.1005 25.1892 14.0694 25.2775 14.4666 25.3051C15.4714 25.3749 19.6009 25.4624 20.2199 25.427C21.2685 25.367 22.0943 25.1422 22.6704 24.7598C22.8296 24.6542 23.0451 24.4558 23.1476 24.3205C23.2352 24.2049 23.3272 24.0178 23.3595 23.8895C23.419 23.6529 23.4266 23.326 23.3787 23.0594C23.3483 22.8896 23.3498 22.7298 23.3828 22.6448C23.4264 22.5321 23.4864 22.4583 23.7661 22.1727C24.0794 21.8528 24.1456 21.7684 24.2523 21.5527C24.3733 21.3083 24.3866 21.2461 24.3866 20.9247C24.3866 20.6065 24.3698 20.4916 24.292 20.2771C24.1449 19.8712 24.1273 19.7948 24.1471 19.6499C24.1633 19.5308 24.2084 19.4507 24.4087 19.1849C24.6152 18.911 24.6582 18.8422 24.7203 18.6872C24.8879 18.2685 24.8635 17.8903 24.6445 17.5128C24.5839 17.4084 24.5481 17.3584 24.3391 17.086C24.1963 16.9 24.1735 16.8475 24.1734 16.7048C24.1732 16.5618 24.2045 16.4357 24.2915 16.2294C24.4187 15.9278 24.4573 15.7609 24.4558 15.5194C24.4543 15.2578 24.3909 15.0838 24.2191 14.8691C24.0739 14.6876 23.9111 14.5562 23.7287 14.4734C23.2362 14.25 22.4672 14.1548 21.4121 14.1868C20.6971 14.2084 20.3838 14.2506 19.0466 14.5053C18.3311 14.6415 18.1037 14.6565 17.9139 14.5796C17.5575 14.4353 17.3622 14.18 17.264 13.7301C17.2371 13.6068 17.234 13.5557 17.2338 13.2327C17.2335 12.8543 17.2388 12.7934 17.3077 12.386C17.3862 11.9216 17.4762 11.5663 17.7333 10.706C18.032 9.70626 18.1416 9.24179 18.1874 8.78177C18.2108 8.54737 18.1971 8.09945 18.1607 7.90604C18.0664 7.40461 17.8297 7.024 17.4844 6.81842C17.3533 6.7404 17.2195 6.68894 17.0051 6.63413C16.7926 6.5798 16.7086 6.57365 16.6756 6.61004ZM7.14656 16.7986C7.02046 16.8121 6.95997 16.829 6.88926 16.8704C6.81661 16.9131 6.67128 17.0648 6.64666 17.1237C6.59362 17.2507 6.59322 17.2797 6.59322 21.006C6.59322 24.8683 6.59233 24.8157 6.66033 24.9548C6.70709 25.0504 6.85521 25.1876 6.95529 25.2279L7.03322 25.2594L8.43989 25.2584C9.88349 25.2574 10.0971 25.2509 10.2132 25.2045C10.2808 25.1774 10.4128 25.037 10.4581 24.9439C10.4771 24.9047 10.4991 24.8307 10.5068 24.7794C10.5325 24.6096 10.5452 23.1097 10.5459 20.1615L10.5466 17.2504L10.4766 17.1486C10.384 17.014 10.2567 16.8853 10.1846 16.8534C10.1526 16.8392 10.0664 16.8209 9.99314 16.8127C9.834 16.7948 7.2997 16.7822 7.14656 16.7986Z" fill="#A1A1A1"/>
<path fill-rule="evenodd" clip-rule="evenodd" d="M0 16V32L16.0033 31.9967L32.0067 31.9933L32.01 15.9967L32.0133 0H16.0067H0V16ZM0.00664 16.0067C0.00664 24.8067 0.00816 28.4047 0.01 24.0022C0.01184 19.5998 0.01184 12.3998 0.01 8.00223C0.00816 3.60467 0.00664 7.20667 0.00664 16.0067ZM16.3283 5.37321C16.2544 5.38656 16.0696 5.47168 15.9783 5.53451C15.7146 5.71593 15.4997 6.05228 15.4129 6.41929C15.3698 6.60155 15.3588 6.75907 15.3468 7.36667L15.3353 7.95333L15.1266 8.46C14.6116 9.71044 14.3581 10.274 13.9057 11.1733C13.5087 11.9628 13.1531 12.5902 12.8063 13.1133C12.4934 13.5852 12.3158 13.8005 11.8331 14.2933C11.3624 14.7739 11.1869 15.0057 10.8895 15.54C10.8405 15.628 10.7954 15.7076 10.7893 15.7169C10.7808 15.7297 10.7328 15.7166 10.5858 15.6612C10.4658 15.616 10.3531 15.5831 10.2867 15.5737C10.0445 15.5395 7.90111 15.5201 7.24667 15.5461C6.92703 15.5588 6.81788 15.5759 6.60465 15.6468C6.32529 15.7395 6.08407 15.8888 5.8726 16.0996C5.61211 16.3594 5.42849 16.7034 5.37933 17.0238C5.34453 17.2506 5.33404 18.1788 5.33409 21.0267C5.33415 23.7002 5.34351 24.628 5.37375 24.9533C5.40048 25.2411 5.43141 25.3462 5.55149 25.5573C5.73715 25.8838 6.06427 26.1937 6.39264 26.3543C6.56476 26.4384 6.68124 26.4708 6.90065 26.4954C7.11065 26.519 9.93981 26.5204 10.2067 26.4971C10.4163 26.4787 10.5639 26.4314 10.8385 26.2945L11.02 26.2041L11.5533 26.2683C13.6585 26.5218 15.1398 26.6157 17.6267 26.6533C19.3211 26.6789 20.7093 26.6678 21.019 26.6261C21.5202 26.5587 22.2481 26.3584 22.6867 26.1673C23.5899 25.7737 24.1815 25.2254 24.4713 24.5133C24.6066 24.1809 24.6534 23.9203 24.663 23.4467L24.67 23.1L24.765 22.9887C25.2422 22.4295 25.4195 22.1266 25.5664 21.6196C25.6258 21.4146 25.6331 21.3373 25.6332 20.9133C25.6333 20.4652 25.6266 20.4015 25.5446 20.0725L25.4913 19.8583L25.6281 19.6464C25.7854 19.4028 25.9003 19.1795 25.9581 19.0049C26.0441 18.7453 26.0893 18.3799 26.0757 18.0533C26.0561 17.5815 25.9402 17.2209 25.6537 16.7409L25.5428 16.5552L25.5986 16.3231C25.6832 15.971 25.6975 15.8592 25.6978 15.5467C25.6981 15.2281 25.6691 15.02 25.5919 14.7875C25.2694 13.8157 24.3791 13.2067 22.98 13.0007C22.6398 12.9507 22.2819 12.9395 21.5967 12.9576C20.4582 12.9876 20.1912 13.0184 18.86 13.2725C18.728 13.2977 18.5816 13.3225 18.5347 13.3277L18.4495 13.3372L18.4587 13.2386C18.4744 13.071 18.5326 12.6835 18.5746 12.4667C18.6412 12.1232 18.7213 11.8277 19.1004 10.5267C19.2897 9.87681 19.3822 9.45084 19.4129 9.08667C19.4308 8.87463 19.4304 8.02731 19.4124 7.82229C19.3821 7.47875 19.3133 7.23933 19.1453 6.89333C18.9135 6.41592 18.6437 6.09935 18.2342 5.82437C17.9416 5.62789 17.5659 5.46931 17.28 5.42164C17.0219 5.37861 16.4576 5.34989 16.3283 5.37321ZM16.6757 6.61067C16.6638 6.62385 16.6448 6.66085 16.6335 6.69287C16.5918 6.81109 16.5835 6.98945 16.5927 7.57333L16.6017 8.14L16.4211 8.59772C15.6842 10.4651 14.9836 11.9389 14.2566 13.151C13.9595 13.6464 13.6251 14.1361 13.3372 14.4975C13.1557 14.7253 13.0332 14.8608 12.7138 15.1867C12.3244 15.584 12.2227 15.7186 12.027 16.0962C11.8921 16.3565 11.7943 16.5848 11.7584 16.7231C11.7284 16.8389 11.7282 16.8165 11.7623 17.2067C11.7731 17.3301 11.7781 18.448 11.7797 21.0933C11.7819 24.9196 11.783 24.9975 11.8334 25.0349C11.8569 25.0523 12.0583 25.08 12.4933 25.1259C13.1006 25.1898 14.0695 25.2782 14.4667 25.3058C15.4715 25.3756 19.601 25.4631 20.22 25.4277C21.2687 25.3677 22.0944 25.1429 22.6705 24.7605C22.8297 24.6549 23.0452 24.4564 23.1477 24.3211C23.2353 24.2055 23.3273 24.0184 23.3596 23.8901C23.4191 23.6535 23.4267 23.3266 23.3788 23.06C23.3484 22.8902 23.3499 22.7304 23.3829 22.6454C23.4265 22.5328 23.4865 22.4589 23.7662 22.1733C24.0795 21.8535 24.1457 21.769 24.2524 21.5533C24.3734 21.309 24.3867 21.2467 24.3867 20.9253C24.3867 20.6071 24.3699 20.4922 24.2921 20.2777C24.145 19.8718 24.1274 19.7955 24.1472 19.6505C24.1634 19.5314 24.2085 19.4513 24.4088 19.1855C24.6153 18.9116 24.6583 18.8428 24.7204 18.6878C24.888 18.2691 24.8636 17.8909 24.6446 17.5134C24.584 17.4091 24.5482 17.359 24.3392 17.0867C24.1964 16.9006 24.1736 16.8481 24.1735 16.7055C24.1733 16.5624 24.2046 16.4364 24.2916 16.23C24.4188 15.9285 24.4574 15.7615 24.4559 15.52C24.4544 15.2584 24.391 15.0844 24.2192 14.8697C24.074 14.6882 23.9112 14.5568 23.7288 14.4741C23.2363 14.2506 22.4673 14.1554 21.4122 14.1874C20.6972 14.2091 20.3839 14.2513 19.0467 14.5059C18.3312 14.6422 18.1038 14.6571 17.914 14.5802C17.5576 14.4359 17.3623 14.1807 17.2641 13.7307C17.2372 13.6075 17.2341 13.5563 17.2339 13.2333C17.2336 12.855 17.2389 12.794 17.3078 12.3867C17.3863 11.9223 17.4763 11.5669 17.7334 10.7067C18.0321 9.70689 18.1417 9.24243 18.1875 8.7824C18.2109 8.548 18.1972 8.10008 18.1609 7.90667C18.0665 7.40524 17.8298 7.02463 17.4845 6.81905C17.3534 6.74103 17.2196 6.68957 17.0052 6.63476C16.7927 6.58043 16.7087 6.57428 16.6757 6.61067ZM7.14667 16.7992C7.02057 16.8127 6.96008 16.8296 6.88937 16.8711C6.81672 16.9137 6.67139 17.0655 6.64677 17.1244C6.59373 17.2513 6.59333 17.2803 6.59333 21.0067C6.59333 24.869 6.59244 24.8163 6.66044 24.9554C6.7072 25.051 6.85532 25.1882 6.9554 25.2286L7.03333 25.26L8.44 25.2591C9.8836 25.2581 10.0972 25.2516 10.2133 25.2051C10.2809 25.1781 10.4129 25.0376 10.4582 24.9445C10.4772 24.9054 10.4992 24.8313 10.5069 24.78C10.5326 24.6102 10.5453 23.1103 10.546 20.1622L10.5467 17.251L10.4767 17.1492C10.3841 17.0146 10.2568 16.8859 10.1847 16.8541C10.1527 16.8399 10.0665 16.8215 9.99325 16.8133C9.83411 16.7954 7.29981 16.7829 7.14667 16.7992Z" fill="#FBFBFB"/>
</g>
<defs>
<clipPath id="clip0_494_2185">
<rect width="32" height="32" fill="white"/>
</clipPath>
</defs>
</svg>
