<svg width="24" height="24" viewBox="0 0 24 24" fill="none" xmlns="http://www.w3.org/2000/svg">
<path fill-rule="evenodd" clip-rule="evenodd" d="M22 4.5C22 5.88071 20.8807 7 19.5 7C18.1193 7 17 5.88071 17 4.5C17 3.11929 18.1193 2 19.5 2C20.8807 2 22 3.11929 22 4.5ZM24 4.5C24 6.98528 21.9853 9 19.5 9C18.012 9 16.6927 8.27777 15.8735 7.16474L8.8784 10.4565C8.95791 10.7914 9 11.1408 9 11.5C9 12.2467 8.81815 12.9509 8.49632 13.5707L15.8656 16.846C16.6842 15.7269 18.0072 15 19.5 15C21.9853 15 24 17.0147 24 19.5C24 21.9853 21.9853 24 19.5 24C17.0147 24 15 21.9853 15 19.5C15 19.2209 15.0254 18.9478 15.074 18.6828L7.1298 15.152C6.39009 15.6856 5.48176 16 4.5 16C2.01472 16 0 13.9853 0 11.5C0 9.01472 2.01472 7 4.5 7C5.90968 7 7.16796 7.64819 7.99306 8.66278L15.0763 5.32949C15.0262 5.06064 15 4.78338 15 4.5C15 2.01472 17.0147 0 19.5 0C21.9853 0 24 2.01472 24 4.5ZM4.5 14C5.88071 14 7 12.8807 7 11.5C7 10.1193 5.88071 9 4.5 9C3.11929 9 2 10.1193 2 11.5C2 12.8807 3.11929 14 4.5 14ZM19.5 22C20.8807 22 22 20.8807 22 19.5C22 18.1193 20.8807 17 19.5 17C18.1193 17 17 18.1193 17 19.5C17 20.8807 18.1193 22 19.5 22Z" fill="#8F8F8F"/>
</svg>
