<svg width="41" height="24" viewBox="0 0 41 24" fill="none" xmlns="http://www.w3.org/2000/svg">
<rect width="41" height="24" fill="white"/>
<path d="M25.8722 3.32959H16.0098V20.4524H25.8722V3.32959Z" fill="#FF5A00"/>
<path d="M16.6663 11.8912C16.6663 8.41236 18.3586 5.32476 20.9556 3.3298C19.0443 1.87764 16.6334 1 14.0037 1C7.77399 1 2.73334 5.87108 2.73334 11.8912C2.73334 17.9113 7.77399 22.7824 14.0037 22.7824C16.6334 22.7824 19.0443 21.9048 20.9556 20.4526C18.355 18.4858 16.6663 15.37 16.6663 11.8912Z" fill="#EB001B"/>
<path d="M39.1778 11.8912C39.1778 17.9113 34.1371 22.7824 27.9074 22.7824C25.2777 22.7824 22.8668 21.9048 20.9556 20.4526C23.5853 18.4541 25.2449 15.37 25.2449 11.8912C25.2449 8.41236 23.5525 5.32476 20.9556 3.3298C22.8631 1.87764 25.274 1 27.9038 1C34.1371 1 39.1778 5.9028 39.1778 11.8912Z" fill="#F79E1B"/>
</svg>
