<svg width="74" height="24" viewBox="0 0 74 24" fill="none" xmlns="http://www.w3.org/2000/svg">
<rect width="74" height="24" fill="white"/>
<path fill-rule="evenodd" clip-rule="evenodd" d="M11.7568 2.60337C12.3386 2.59961 14.0676 2.43126 14.8 5.10343C15.2933 6.90343 16.0792 9.85191 17.1575 13.9489H17.5967C18.7532 9.62957 19.5476 6.68108 19.98 5.10343C20.72 2.40343 22.57 2.60343 23.31 2.60343L29.0193 2.60344V21.8034H23.2002V10.4885H22.81L19.5662 21.8034H15.1881L11.9442 10.4802H11.554V21.8034H5.73499V2.60344L11.7568 2.60337ZM37.3753 2.60344V13.9267H37.8395L41.7853 4.61566C42.5513 2.76274 44.1838 2.60344 44.1838 2.60344H49.8149V21.8034H43.8743V10.4802H43.4101L39.5416 19.7912C38.7757 21.6357 37.0658 21.8034 37.0658 21.8034H31.4347V2.60344H37.3753ZM70.3482 11.7274C69.5195 14.266 66.9172 16.0841 64.0362 16.0841H57.8063V21.8034H52.1571V11.7274H70.3482Z" fill="#0F754E"/>
<path fill-rule="evenodd" clip-rule="evenodd" d="M64.3086 2.60352H51.8609C52.1571 6.87809 55.5622 10.5374 59.0872 10.5374H70.7407C71.4132 6.98473 69.0981 2.60352 64.3086 2.60352Z" fill="url(#paint0_linear_339_1070)"/>
<defs>
<linearGradient id="paint0_linear_339_1070" x1="1951.27" y1="501.679" x2="51.8609" y2="501.679" gradientUnits="userSpaceOnUse">
<stop stop-color="#1F5CD7"/>
<stop offset="1" stop-color="#02AEFF"/>
</linearGradient>
</defs>
</svg>
