<svg width="49" height="24" viewBox="0 0 49 24" fill="none" xmlns="http://www.w3.org/2000/svg">
<rect width="49" height="24" fill="white"/>
<path d="M42.8709 7.27966V12.6583H40.8852V8.8853H38.9732V12.6583H36.9875V7.2793H42.8709V7.27966Z" fill="#1A1A1A"/>
<path fill-rule="evenodd" clip-rule="evenodd" d="M32.9095 12.8506C34.6871 12.8506 36.0071 11.7964 36.0071 10.1983C36.0071 8.65149 35.0332 7.64719 33.4056 7.64719C32.6544 7.64719 32.0346 7.90294 31.5677 8.34422C31.6792 7.43214 32.4766 6.76627 33.3546 6.76627C33.5572 6.76627 35.0827 6.76315 35.0827 6.76315L35.9453 5.1665C35.9453 5.1665 34.0301 5.20867 33.1398 5.20867C31.1056 5.24295 29.7316 7.03137 29.7316 9.2035C29.7316 11.7341 31.0717 12.8506 32.9095 12.8506ZM32.9203 9.06142C33.5803 9.06142 34.0379 9.48089 34.0379 10.1981C34.0379 10.8436 33.6313 11.3755 32.9203 11.3769C32.2402 11.3769 31.7827 10.8841 31.7827 10.2091C31.7827 9.4917 32.2402 9.06142 32.9203 9.06142Z" fill="#1A1A1A"/>
<path d="M28.1151 10.8579C28.1151 10.8579 27.6462 11.1193 26.9458 11.1688C26.1406 11.1919 25.4232 10.7 25.4232 9.82607C25.4232 8.97357 26.0563 8.48499 26.9255 8.48499C27.4585 8.48499 28.1637 8.8423 28.1637 8.8423C28.1637 8.8423 28.6796 7.92655 28.9469 7.46859C28.4575 7.1098 27.8056 6.91309 27.0474 6.91309C25.1339 6.91309 23.6519 8.11979 23.6519 9.81525C23.6519 11.5324 25.0448 12.711 27.0474 12.6754C27.6071 12.6553 28.3794 12.4652 28.85 12.1727L28.1151 10.8579Z" fill="#1A1A1A"/>
<path d="M3.69812 5.78857L6.45263 10.5507V13.4554L3.70134 18.2081L3.69812 5.78857Z" fill="#5B57A2"/>
<path d="M14.2743 8.81758L16.8554 7.28748L22.1377 7.28271L14.2743 11.9419V8.81758Z" fill="#D90751"/>
<path d="M14.2598 5.76062L14.2744 12.0654L11.5134 10.4246V1L14.2598 5.76062Z" fill="#FAB718"/>
<path d="M22.1378 7.28302L16.8553 7.28778L14.2598 5.76062L11.5134 1L22.1378 7.28302Z" fill="#ED6F26"/>
<path d="M14.2744 18.2345V15.1756L11.5134 13.5659L11.5149 22.9999L14.2744 18.2345Z" fill="#63B22F"/>
<path d="M16.8489 16.7184L6.45244 10.5507L3.69812 5.78857L22.1265 16.7121L16.8489 16.7184Z" fill="#1487C9"/>
<path d="M11.515 23.0002L14.2741 18.2348L16.8487 16.7186L22.1263 16.7124L11.515 23.0002Z" fill="#017F36"/>
<path d="M3.70142 18.208L11.536 13.566L8.90203 12.0029L6.4527 13.4553L3.70142 18.208Z" fill="#984995"/>
<path d="M25.4238 16.2783C25.3632 16.3531 25.2834 16.4096 25.1877 16.4477C25.0895 16.4864 24.9844 16.506 24.8783 16.5056C24.7729 16.507 24.668 16.49 24.5688 16.4554C24.4797 16.4241 24.3982 16.3753 24.3296 16.312C24.2618 16.2487 24.2086 16.1722 24.1734 16.0876C24.1353 15.995 24.1163 15.896 24.1175 15.7963C24.1175 15.6973 24.1351 15.6056 24.1717 15.5187C24.2068 15.4317 24.2577 15.357 24.3216 15.2943C24.3855 15.2304 24.4621 15.1816 24.5481 15.1435C24.6359 15.1068 24.7316 15.087 24.8368 15.087C24.9502 15.087 25.0554 15.1007 25.1511 15.1281C25.2468 15.1556 25.3281 15.2014 25.395 15.2656L25.2787 15.4562C25.2224 15.4069 25.1561 15.3694 25.084 15.3462C25.0155 15.3249 24.9439 15.3141 24.8719 15.3143C24.8082 15.3143 24.7475 15.3264 24.6886 15.3493C24.6305 15.372 24.5774 15.4051 24.5322 15.4471C24.486 15.4902 24.4496 15.5421 24.4253 15.5996C24.3982 15.659 24.3855 15.7246 24.3855 15.7978C24.3855 15.8726 24.3997 15.9397 24.4268 15.9976C24.4541 16.0572 24.4907 16.1076 24.537 16.1501C24.5832 16.193 24.6374 16.2249 24.6996 16.2464C24.7619 16.2693 24.8273 16.2799 24.8975 16.2799C24.9835 16.2799 25.0618 16.2631 25.1287 16.231C25.195 16.2 25.2546 16.1571 25.3042 16.1045L25.4238 16.2783ZM25.7523 16.4735V15.116H26.0044V16.1274L26.8242 15.116H27.0763V16.4737H26.8242V15.4623L26.0044 16.4737L25.7523 16.4735ZM28.7462 16.2783C28.6842 16.3537 28.6029 16.4121 28.5102 16.4477C28.412 16.4863 28.3068 16.506 28.2007 16.5056C28.0953 16.507 27.9905 16.49 27.8914 16.4554C27.8022 16.4241 27.7207 16.3753 27.652 16.312C27.5842 16.2487 27.531 16.1722 27.4958 16.0876C27.4577 15.995 27.4387 15.896 27.4399 15.7963C27.4399 15.6973 27.4575 15.6056 27.4941 15.5187C27.5293 15.4317 27.5803 15.357 27.644 15.2943C27.7079 15.2304 27.7845 15.1816 27.8705 15.1435C27.9614 15.1047 28.0599 15.0855 28.1592 15.087C28.2726 15.087 28.3778 15.1007 28.4735 15.1281C28.5692 15.1556 28.6505 15.2014 28.7176 15.2656L28.601 15.4562C28.5448 15.4069 28.4786 15.3694 28.4066 15.3462C28.338 15.3249 28.2665 15.3141 28.1945 15.3143C28.0678 15.3147 27.9461 15.3623 27.8546 15.4471C27.8088 15.4905 27.7725 15.5424 27.7477 15.5996C27.7206 15.659 27.7079 15.7246 27.7079 15.7978C27.7079 15.8726 27.7223 15.9397 27.7494 15.9976C27.7765 16.0572 27.8131 16.1076 27.8593 16.1501C27.9056 16.193 27.96 16.2249 28.0222 16.2464C28.0843 16.2677 28.1497 16.2799 28.2199 16.2799C28.3061 16.2799 28.3827 16.2631 28.4511 16.231C28.5174 16.2 28.577 16.1571 28.6266 16.1045L28.7462 16.2783ZM28.8755 15.116H30.169V15.357H29.6491V16.4735H29.397V15.357H28.877V15.116H28.8755Z" fill="#1A1A1A"/>
<path fill-rule="evenodd" clip-rule="evenodd" d="M31.3461 16.4604C31.4419 16.4314 31.5232 16.3871 31.5933 16.3262L31.5167 16.137C31.4705 16.1768 31.4083 16.2103 31.3334 16.2378C31.2584 16.2653 31.1739 16.2789 31.0814 16.2789C30.9426 16.2789 30.8277 16.2439 30.7368 16.1722C30.646 16.1003 30.5965 15.9999 30.5853 15.8715H31.6763C31.6875 15.8242 31.6923 15.7709 31.6923 15.7084C31.6923 15.6152 31.6746 15.5314 31.6396 15.4552C31.6069 15.3811 31.5592 15.3142 31.4993 15.2583C31.4386 15.2029 31.3669 15.1599 31.2887 15.1318C31.2068 15.101 31.1197 15.0855 31.0319 15.0859C30.9138 15.0859 30.8101 15.1057 30.7193 15.1424C30.6335 15.1773 30.5558 15.2287 30.4911 15.2935C30.4282 15.3579 30.38 15.4342 30.3493 15.5177C30.3156 15.6066 30.2989 15.7006 30.2998 15.7953C30.2998 15.9021 30.319 15.9997 30.3541 16.0868C30.3882 16.1711 30.4404 16.2475 30.5072 16.311C30.5726 16.3733 30.6522 16.4208 30.7464 16.4543C30.8473 16.4889 30.9537 16.5059 31.0607 16.5046C31.1576 16.504 31.2539 16.489 31.3461 16.4604ZM30.7081 15.4154C30.7862 15.3468 30.8899 15.3133 31.0207 15.3133C31.1435 15.3133 31.2425 15.3454 31.3143 15.4095C31.3861 15.4735 31.4242 15.5621 31.4307 15.6748H30.5694C30.5816 15.575 30.6309 15.4827 30.7081 15.4154Z" fill="#1A1A1A"/>
<path d="M32.0353 15.1162H32.265L32.8105 15.789L33.3272 15.1162H33.5505V16.474H33.2986V15.484L32.8073 16.1139H32.7976L32.2874 15.4838V16.4738H32.0353V15.1162Z" fill="#1A1A1A"/>
<path fill-rule="evenodd" clip-rule="evenodd" d="M34.2363 15.1207C34.1598 15.1401 34.0867 15.1703 34.0195 15.2106L34.0864 15.4031C34.1438 15.3756 34.2012 15.3527 34.2587 15.3329C34.3161 15.3129 34.3895 15.3037 34.4772 15.3037C34.5473 15.3037 34.6033 15.3145 34.6463 15.3358C34.6893 15.3556 34.7212 15.3862 34.7435 15.4229C34.7659 15.4595 34.7803 15.5052 34.7883 15.5585C34.7962 15.6119 34.7994 15.6698 34.7994 15.7325C34.7479 15.6978 34.6891 15.6743 34.6271 15.6638C34.5673 15.6523 34.5064 15.6461 34.4454 15.6454C34.3703 15.6454 34.3002 15.6563 34.2331 15.6744C34.1662 15.6927 34.1087 15.7202 34.0625 15.7569C34.0153 15.7935 33.9771 15.8399 33.9508 15.8926C33.9227 15.9503 33.9086 16.0134 33.9093 16.0772C33.9093 16.2099 33.9493 16.3137 34.0289 16.387C34.1087 16.4602 34.2139 16.4967 34.3447 16.4967C34.4628 16.4967 34.557 16.4768 34.6287 16.4372C34.7005 16.3975 34.7579 16.3518 34.7994 16.2999V16.4754H35.0354V15.6425C35.0354 15.4654 34.9956 15.3283 34.9143 15.232C34.8345 15.1359 34.6925 15.0872 34.4916 15.0872C34.4022 15.0872 34.3176 15.0993 34.2363 15.1207ZM34.6577 16.2207C34.6002 16.2603 34.5252 16.2785 34.4327 16.2785C34.3514 16.2785 34.2875 16.2587 34.2429 16.2205C34.1982 16.1809 34.1758 16.1291 34.1758 16.0649C34.1758 16.0269 34.1838 15.9949 34.2014 15.9659C34.2191 15.9369 34.2429 15.914 34.27 15.8957C34.2997 15.8765 34.3326 15.8625 34.3673 15.8544C34.4041 15.8453 34.4406 15.8407 34.4789 15.8407C34.6035 15.8407 34.7102 15.8696 34.7979 15.9307V16.103C34.7566 16.1479 34.7094 16.1875 34.6577 16.2207ZM37.2607 14.6386C37.3117 14.6158 37.3595 14.5777 37.4042 14.5212L37.267 14.3306C37.2319 14.3764 37.1921 14.4083 37.1474 14.4252C37.1 14.4431 37.0508 14.4564 37.0007 14.4648L36.9529 14.473C36.9114 14.48 36.8668 14.4877 36.8189 14.4954C36.742 14.5091 36.667 14.5317 36.5956 14.5625C36.4823 14.6098 36.3915 14.6738 36.3228 14.7546C36.2542 14.8355 36.2 14.927 36.1632 15.0278C36.126 15.1299 36.1009 15.2358 36.0884 15.3435C36.0755 15.4535 36.0692 15.5585 36.0692 15.6592C36.0692 15.789 36.0867 15.9063 36.1217 16.0115C36.157 16.117 36.2063 16.2053 36.2717 16.277C36.3371 16.3503 36.4153 16.4053 36.5078 16.4449C36.6003 16.4845 36.704 16.5044 36.8204 16.5044C36.9273 16.5044 37.0263 16.4845 37.1155 16.4479C37.2016 16.4127 37.2797 16.3614 37.3453 16.297C37.409 16.2343 37.4601 16.1595 37.4952 16.0757C37.5318 15.9917 37.5494 15.9017 37.5494 15.8071C37.5494 15.705 37.5335 15.6121 37.5032 15.5296C37.4752 15.4509 37.4307 15.3787 37.3724 15.3176C37.3139 15.2575 37.2426 15.2106 37.1633 15.1801C37.076 15.1469 36.9828 15.1303 36.889 15.1314C36.8284 15.1314 36.7694 15.1391 36.712 15.1543C36.6561 15.1695 36.6025 15.1916 36.5524 15.2199C36.5038 15.2468 36.4592 15.2802 36.4201 15.3189C36.3818 15.3572 36.3499 15.3999 36.3276 15.4487H36.3211C36.3261 15.3862 36.334 15.3222 36.3482 15.2566C36.3626 15.191 36.3833 15.1282 36.4106 15.0688C36.4377 15.0094 36.4728 14.9559 36.5158 14.9071C36.5619 14.8579 36.6185 14.8189 36.6817 14.7927C36.7511 14.7608 36.8246 14.7377 36.9002 14.7242L36.9502 14.7154C37.0001 14.7066 37.0477 14.6982 37.0932 14.689C37.1538 14.6769 37.2095 14.6613 37.2607 14.6386ZM36.3738 15.943C36.3492 15.866 36.3373 15.7856 36.3388 15.705C36.3495 15.6587 36.3689 15.6148 36.3962 15.5754C36.4233 15.5341 36.4584 15.4977 36.4999 15.4654C36.5936 15.3944 36.7094 15.3563 36.8284 15.3572C36.9768 15.3572 37.0884 15.4014 37.1665 15.4885C37.2448 15.5769 37.2831 15.6867 37.2831 15.8194C37.2831 15.8851 37.2702 15.9446 37.248 15.9994C37.2265 16.0535 37.1939 16.1029 37.1523 16.1445C37.1106 16.1862 37.0607 16.2193 37.0056 16.242C36.9482 16.2664 36.8858 16.2787 36.8157 16.2787C36.7455 16.2787 36.6817 16.2649 36.6227 16.2374C36.5641 16.2105 36.5124 16.1714 36.4711 16.123C36.4278 16.0691 36.3949 16.0081 36.3738 15.943ZM39.4826 15.1161H39.2305V16.4739H39.4826V15.1161ZM37.913 15.1161H38.1651V15.5235H38.398C38.5079 15.5235 38.5972 15.5373 38.6691 15.5631C38.7409 15.5891 38.7983 15.6242 38.8414 15.6669C38.8844 15.7096 38.9147 15.76 38.9323 15.8163C38.9498 15.8728 38.9595 15.9307 38.9595 15.9917C38.9595 16.0528 38.9498 16.1109 38.9291 16.1688C38.91 16.2268 38.8764 16.277 38.8317 16.3228C38.7871 16.3687 38.7265 16.4054 38.6499 16.4329C38.5733 16.4602 38.4808 16.4754 38.3692 16.4754H37.9114V15.1161H37.913ZM38.1651 15.7507V16.248H38.3485C38.4746 16.248 38.5639 16.2268 38.6149 16.1839C38.666 16.1412 38.6914 16.0803 38.6914 15.9994C38.6914 15.9169 38.6643 15.8546 38.6133 15.8117C38.5606 15.769 38.4729 15.7475 38.3518 15.7475H38.1651V15.7507Z" fill="#1A1A1A"/>
<path d="M41.1494 16.2783C41.0888 16.3531 41.009 16.4096 40.9133 16.4477C40.815 16.4863 40.7099 16.506 40.6039 16.5056C40.4985 16.507 40.3936 16.49 40.2944 16.4554C40.2052 16.4241 40.1238 16.3753 40.0552 16.312C39.9874 16.2486 39.9341 16.1722 39.8988 16.0876C39.8609 15.9949 39.8419 15.896 39.8431 15.7963C39.8431 15.6973 39.8605 15.6056 39.8973 15.5187C39.9323 15.4317 39.9833 15.357 40.0472 15.2943C40.1111 15.2304 40.1875 15.1816 40.2737 15.1435C40.3646 15.1047 40.4631 15.0855 40.5624 15.087C40.6756 15.087 40.7809 15.1007 40.8767 15.1281C40.9724 15.1556 41.0537 15.2014 41.1206 15.2656L41.0042 15.4562C40.9479 15.4069 40.8817 15.3694 40.8096 15.3462C40.741 15.3249 40.6695 15.3141 40.5975 15.3143C40.5338 15.3143 40.4731 15.3264 40.414 15.3493C40.356 15.372 40.3029 15.4052 40.2578 15.4471C40.2119 15.4904 40.1756 15.5423 40.1509 15.5996C40.1238 15.659 40.1111 15.7246 40.1111 15.7978C40.1111 15.8726 40.1253 15.9397 40.1524 15.9976C40.1795 16.0572 40.2163 16.1076 40.2625 16.1501C40.3088 16.193 40.363 16.2249 40.4252 16.2464C40.4875 16.2677 40.5529 16.2799 40.6231 16.2799C40.7091 16.2799 40.7857 16.2631 40.8543 16.231C40.9206 16.2 40.9802 16.1571 41.0298 16.1045L41.1494 16.2783ZM41.2785 15.116H42.5722V15.357H42.0521V16.4735H41.8001V15.357H41.2802V15.116H41.2785Z" fill="#1A1A1A"/>
<path fill-rule="evenodd" clip-rule="evenodd" d="M43.0985 15.1167H42.8464V17.0783H43.0985V16.4117C43.1495 16.4438 43.2102 16.4667 43.2803 16.4819C43.3504 16.4972 43.4238 16.5047 43.4989 16.5047C43.6105 16.5047 43.711 16.4849 43.8019 16.4484C43.8892 16.4123 43.9683 16.36 44.0347 16.2944C44.1001 16.2286 44.1496 16.1523 44.1846 16.0623C44.2197 15.9725 44.2373 15.8762 44.2373 15.7741C44.2373 15.6733 44.2214 15.5803 44.1911 15.4963C44.1625 15.4166 44.1181 15.343 44.0603 15.2798C44.0036 15.2182 43.9332 15.1697 43.8545 15.1379C43.7684 15.1021 43.6754 15.0844 43.5817 15.086C43.4829 15.086 43.3904 15.1044 43.3027 15.141C43.2149 15.1777 43.1463 15.2217 43.0985 15.2767V15.1167ZM43.2741 15.3684C43.3459 15.3317 43.424 15.3134 43.5085 15.3134C43.5819 15.3134 43.6473 15.324 43.7064 15.3469C43.7638 15.3698 43.8116 15.4019 43.8516 15.4446C43.8914 15.4874 43.9217 15.5363 43.9409 15.5941C43.9615 15.652 43.9712 15.7147 43.9712 15.7833C43.9712 15.8566 43.9583 15.922 43.9361 15.9831C43.9152 16.041 43.8821 16.094 43.8387 16.1387C43.7952 16.1829 43.7425 16.2178 43.684 16.2409C43.6189 16.2672 43.5488 16.2802 43.4782 16.279C43.4098 16.279 43.3459 16.2715 43.2852 16.2563C43.2188 16.2388 43.1558 16.2109 43.0987 16.1738V15.5009C43.1433 15.4492 43.2024 15.405 43.2741 15.3684ZM46.1705 15.1165H45.9184V16.4742H46.1705V15.1165ZM44.5994 15.1165H44.8515V15.5238H45.0842C45.1944 15.5238 45.2836 15.5376 45.3555 15.5634C45.4273 15.5895 45.4848 15.6245 45.5278 15.6672C45.5708 15.7099 45.6011 15.7603 45.6186 15.8166C45.6362 15.8731 45.6457 15.931 45.6457 15.9921C45.6457 16.0531 45.6362 16.1112 45.6155 16.1692C45.5964 16.2271 45.5628 16.2773 45.5181 16.3232C45.4736 16.369 45.4129 16.4057 45.3363 16.4332C45.2598 16.4605 45.1673 16.4757 45.0556 16.4757H44.5979V15.1165H44.5994ZM44.8532 15.751V16.2484H45.0367C45.1625 16.2484 45.252 16.2271 45.303 16.1842C45.354 16.1415 45.3796 16.0806 45.3796 15.9998C45.3796 15.9173 45.3524 15.8549 45.3015 15.812C45.2488 15.7693 45.161 15.7479 45.0399 15.7479H44.8532V15.751Z" fill="#1A1A1A"/>
<path d="M47.3797 15.7707L47.9188 16.474H47.6094L47.193 15.9247L46.7703 16.474H46.4769L47.0127 15.7828L46.5087 15.1162H46.8183L47.2027 15.6288L47.5933 15.1162H47.8869L47.3797 15.7707ZM25.2373 18.152H24.4638V19.2839H24.2117V17.9263H25.4892V19.2839H25.2373V18.152ZM26.9199 18.1672H26.4224L26.4063 18.396C26.3888 18.5898 26.3649 18.7455 26.3314 18.8643C26.2978 18.9834 26.2563 19.0749 26.2086 19.1389C26.1608 19.2031 26.1049 19.2473 26.041 19.2687C25.9751 19.2918 25.9054 19.3032 25.8353 19.3023L25.8162 19.0672C25.8433 19.0687 25.8751 19.0626 25.9102 19.0474C25.9455 19.0322 25.9805 18.9987 26.0139 18.9484C26.0474 18.8964 26.0778 18.8232 26.1049 18.7286C26.132 18.6325 26.1496 18.5075 26.1591 18.3502L26.1847 17.9276H27.172V19.2854H26.9199V18.1672Z" fill="#1A1A1A"/>
<path fill-rule="evenodd" clip-rule="evenodd" d="M27.8515 17.9291C27.77 17.9503 27.6967 17.9808 27.6345 18.0189L27.7016 18.2112C27.759 18.1837 27.8165 18.1608 27.8737 18.141C27.9312 18.1212 28.0047 18.112 28.0923 18.112C28.1626 18.112 28.2183 18.1227 28.2613 18.1439C28.3046 18.1639 28.3364 18.1943 28.3588 18.231C28.3809 18.2677 28.3954 18.3135 28.4033 18.3667C28.4113 18.4202 28.4145 18.4781 28.4145 18.5407C28.3629 18.5059 28.3041 18.4825 28.2422 18.4721C28.1823 18.4606 28.1215 18.4544 28.0604 18.4538C27.9856 18.4538 27.9152 18.4644 27.8483 18.4827C27.7812 18.5011 27.7238 18.5286 27.6775 18.5652C27.6303 18.6018 27.5922 18.6482 27.5659 18.7009C27.5379 18.7586 27.5237 18.8217 27.5246 18.8855C27.5246 19.0181 27.5644 19.122 27.6442 19.1952C27.7238 19.2683 27.8292 19.305 27.96 19.305C28.078 19.305 28.1721 19.2852 28.2439 19.2454C28.3156 19.2058 28.373 19.16 28.4145 19.1081V19.2835H28.6507V18.4506C28.6507 18.2737 28.6107 18.1364 28.5294 18.0403C28.4496 17.9441 28.3076 17.8955 28.1067 17.8955C28.0205 17.8956 27.9347 17.907 27.8515 17.9291ZM28.2742 19.0287C28.217 19.0685 28.1419 19.0868 28.0494 19.0868C27.9664 19.0868 27.9042 19.067 27.8597 19.0287C27.815 18.9891 27.7926 18.9372 27.7926 18.8732C27.7926 18.8351 27.8006 18.803 27.8182 18.774C27.8356 18.7451 27.8597 18.7222 27.8868 18.7038C27.9139 18.6855 27.9473 18.6717 27.984 18.6626C28.0205 18.6535 28.058 18.6489 28.0957 18.649C28.22 18.649 28.3269 18.678 28.4147 18.7388V18.9112C28.3733 18.956 28.3261 18.9955 28.2742 19.0287Z" fill="#1A1A1A"/>
<path d="M28.8976 17.9263H30.1912V18.1672H29.6711V19.2839H29.4192V18.1674H28.8993V17.9263H28.8976Z" fill="#1A1A1A"/>
<path fill-rule="evenodd" clip-rule="evenodd" d="M31.3687 19.2699C31.4644 19.2409 31.5457 19.1965 31.6158 19.1357L31.5393 18.9465C31.493 18.9863 31.4308 19.0198 31.3558 19.0473C31.2809 19.0748 31.1964 19.0884 31.1039 19.0884C30.9651 19.0884 30.8503 19.0534 30.7593 18.9817C30.6683 18.91 30.619 18.8093 30.6078 18.681H31.6989C31.7099 18.6339 31.7148 18.5804 31.7148 18.5178C31.7148 18.4249 31.6972 18.3409 31.6621 18.2647C31.6294 18.1906 31.5817 18.1237 31.5216 18.0679C31.461 18.0125 31.3894 17.9694 31.3112 17.9413C31.2294 17.9105 31.1422 17.895 31.0544 17.8954C30.9363 17.8954 30.8326 17.9152 30.7418 17.9519C30.6559 17.9867 30.5783 18.0381 30.5136 18.103C30.4508 18.1674 30.4024 18.2437 30.3716 18.3272C30.338 18.4161 30.3213 18.5101 30.3222 18.6047C30.3222 18.7116 30.3413 18.8092 30.3764 18.8962C30.4116 18.9831 30.4642 19.0579 30.5295 19.1205C30.5949 19.183 30.6747 19.2303 30.7689 19.2638C30.8697 19.2985 30.9761 19.3155 31.083 19.3142C31.1772 19.3142 31.2729 19.2988 31.3687 19.2699ZM30.7291 18.2234C30.8072 18.1548 30.9109 18.1213 31.0417 18.1213C31.1662 18.1213 31.2635 18.1548 31.3353 18.2174C31.407 18.2815 31.4452 18.3699 31.4517 18.4828H30.5904C30.6025 18.3829 30.6519 18.2907 30.7291 18.2234ZM31.8376 17.926H32.1566L32.643 18.5805L32.1231 19.2836H31.8137L32.3591 18.5804L31.8376 17.926ZM32.7052 17.926H32.9573V19.2836H32.7052V17.926ZM33.8584 19.2836L33.3034 18.5804L33.8218 17.9259H33.509L33.0194 18.5804L33.5458 19.2836H33.8584ZM35.0101 19.2699C35.1058 19.2409 35.1871 19.1965 35.2572 19.1357L35.1807 18.9465C35.1344 18.9863 35.0722 19.0198 34.9974 19.0473C34.9223 19.0748 34.8378 19.0884 34.7453 19.0884C34.6065 19.0884 34.4917 19.0534 34.4007 18.9817C34.3099 18.91 34.2604 18.8093 34.2492 18.681H35.3403C35.3514 18.6339 35.3562 18.5804 35.3562 18.5178C35.3562 18.4249 35.3387 18.3409 35.3035 18.2647C35.2708 18.1907 35.2231 18.1238 35.1632 18.0679C35.1025 18.0125 35.0309 17.9694 34.9526 17.9413C34.8708 17.9105 34.7836 17.895 34.6958 17.8954C34.5779 17.8954 34.4742 17.9152 34.3832 17.9519C34.2974 17.9868 34.2199 18.0382 34.1552 18.103C34.0922 18.1673 34.0439 18.2437 34.0132 18.3272C33.9795 18.416 33.9628 18.5101 33.9638 18.6047C33.9638 18.7116 33.9829 18.8092 34.018 18.8962C34.053 18.9831 34.1057 19.0579 34.1711 19.1205C34.2365 19.183 34.3161 19.2303 34.4103 19.2638C34.5112 19.2985 34.6176 19.3155 34.7246 19.3142C34.8215 19.3135 34.9178 19.2986 35.0101 19.2699ZM34.3705 18.2234C34.4488 18.1548 34.5525 18.1213 34.6833 18.1213C34.8061 18.1213 34.9049 18.1548 34.9767 18.2174C35.0485 18.2815 35.0868 18.3699 35.0931 18.4828H34.2318C34.2439 18.3829 34.2933 18.2907 34.3705 18.2234ZM36.3788 17.4699C36.2304 17.4699 36.1491 17.3905 36.1364 17.2319H35.8987C35.8987 17.2928 35.9099 17.3478 35.9305 17.3997C35.9514 17.4516 35.9817 17.4958 36.0215 17.5324C36.0613 17.5691 36.1125 17.5981 36.1714 17.6208C36.2304 17.6437 36.299 17.6543 36.3771 17.6543C36.4489 17.6543 36.5128 17.6437 36.5702 17.6208C36.6277 17.5995 36.6754 17.5691 36.7169 17.5324C36.7568 17.4958 36.7888 17.4516 36.811 17.3997C36.8333 17.3478 36.8445 17.2928 36.8445 17.2319H36.6085C36.5973 17.3905 36.5191 17.4699 36.3788 17.4699ZM35.6976 17.9259V19.2836H35.9497L36.7695 18.2722V19.2836H37.0216V17.9259H36.7695L35.9497 18.9373V17.9259H35.6976Z" fill="#1A1A1A"/>
</svg>
