<svg width="48" height="48" viewBox="0 0 48 48" fill="none" xmlns="http://www.w3.org/2000/svg">
<rect width="48" height="48" fill="#1A1A1A"/>
<path d="M34.2289 14.041C32.9164 14.2566 27.9477 16.2629 16.9977 21.0066C13.707 22.4316 10.857 23.6973 10.6508 23.8285C9.93829 24.2785 9.80704 24.7566 10.2758 25.1879C10.5664 25.4598 12.4227 26.1254 14.382 26.6598C15.6852 27.016 17.0445 27.0254 17.7758 26.6785C18.057 26.5473 20.5039 24.9629 23.2133 23.1535C27.9758 19.9754 29.0633 19.2816 29.2883 19.2816C29.4477 19.2816 29.682 19.5535 29.682 19.741C29.682 19.9941 28.782 20.9223 26.232 23.3316C23.1477 26.2191 21.9383 27.4098 21.6102 27.8504C21.1789 28.4316 21.2727 29.0504 21.8727 29.6035C22.257 29.9598 29.5789 34.8816 30.1602 35.1816C30.7508 35.4816 31.6039 35.5848 32.0352 35.4066C32.4383 35.2379 32.8414 34.6566 33.057 33.916C33.4414 32.6223 35.1758 22.2816 35.7758 17.6879C36.0289 15.7754 36.0383 14.9223 35.8414 14.5379C35.6164 14.0973 35.0164 13.9098 34.2289 14.041Z" fill="white"/>
</svg>
