<svg width="76" height="24" viewBox="0 0 76 24" fill="none" xmlns="http://www.w3.org/2000/svg">
<rect width="76" height="24" fill="white"/>
<path d="M33.1999 22.6828H27.3674L31.0155 1.38623H36.8477L33.1999 22.6828Z" fill="#00579F"/>
<path d="M54.3433 1.90668C53.1928 1.47577 51.3682 1 49.112 1C43.3522 1 39.2962 3.89981 39.2713 8.04566C39.2235 11.1045 42.1753 12.8034 44.383 13.8233C46.6395 14.8655 47.4066 15.5457 47.4066 16.4747C47.3836 17.9014 45.5832 18.5591 43.904 18.5591C41.5754 18.5591 40.3277 18.22 38.4315 17.4262L37.6635 17.086L36.8474 21.8666C38.2153 22.455 40.7356 22.9771 43.3522 23C49.4721 23 53.4563 20.1451 53.5035 15.727C53.5268 13.3027 51.9681 11.445 48.6077 9.92708C46.5678 8.95265 45.3185 8.2956 45.3185 7.29858C45.3424 6.3922 46.3751 5.46384 48.6779 5.46384C50.574 5.41837 51.9671 5.84867 53.0225 6.27928L53.5501 6.50542L54.3433 1.90668Z" fill="#00579F"/>
<path d="M62.0951 15.1382C62.5755 13.9147 64.4237 9.17958 64.4237 9.17958C64.3995 9.22505 64.9031 7.93354 65.1911 7.14068L65.5987 8.97572C65.5987 8.97572 66.7032 14.0734 66.9431 15.1382C66.0315 15.1382 63.2472 15.1382 62.0951 15.1382ZM69.2946 1.38623H64.7832C63.392 1.38623 62.335 1.77106 61.7347 3.15322L53.0713 22.6825H59.1912C59.1912 22.6825 60.1987 20.054 60.4153 19.4879C61.0866 19.4879 67.04 19.4879 67.9037 19.4879C68.0712 20.2356 68.5996 22.6825 68.5996 22.6825H74L69.2946 1.38623Z" fill="#00579F"/>
<path d="M22.4959 1.38623L16.7839 15.9085L16.1598 12.9632C15.1038 9.56472 11.7919 5.87235 8.09595 4.03641L13.3279 22.6602H19.4956L28.6633 1.38623H22.4959Z" fill="#00579F"/>
<path d="M11.4799 1.38623H2.096L2 1.81653C9.32005 3.58382 14.168 7.8438 16.1598 12.9641L14.1198 3.1764C13.784 1.81623 12.7519 1.4311 11.4799 1.38623Z" fill="#FAA61A"/>
</svg>
