<svg width="48" height="48" viewBox="0 0 48 48" fill="none" xmlns="http://www.w3.org/2000/svg">
<rect width="48" height="48" fill="#1A1A1A"/>
<path d="M8.57927 16.0938C7.9324 16.2813 7.84802 16.8251 8.22302 18.2875C9.16052 21.8782 12.5636 27.8969 15.2355 30.6813C17.3543 32.8938 19.8949 34.3469 22.4261 34.7969C23.448 34.975 25.2668 34.9563 25.848 34.7594C26.598 34.5063 26.6449 34.3563 26.6449 31.9C26.6449 29.3782 26.673 29.3032 27.5355 29.3032C28.6324 29.3125 30.048 30.3813 32.5136 33.0625C33.4605 34.0938 33.9855 34.5907 34.2761 34.7313C34.6699 34.9282 34.8011 34.9375 37.0418 34.9094L39.3949 34.8813L39.6386 34.6282C40.4543 33.8125 39.2168 31.7969 35.6918 28.1782C34.4449 26.9032 34.1449 26.4907 34.1449 26.0969C34.1449 25.825 34.2949 25.5813 35.6543 23.5563C37.6793 20.5563 39.0199 18.1282 39.1886 17.2001C39.3761 16.1219 39.2261 16.0469 36.8261 16.0094C35.7949 15.9907 34.7261 16 34.4449 16.0375C33.723 16.1313 33.3386 16.525 32.8324 17.6782C31.1449 21.5875 28.1355 25.5532 27.1136 25.225C26.6918 25.0938 26.6918 25.075 26.6449 20.7157L26.598 16.5532L26.3355 16.3001L26.0824 16.0375L23.1949 16.0094C21.6105 15.9907 20.1761 16.0094 20.0074 16.0375C19.2386 16.1782 19.1074 16.8532 19.7074 17.6219C19.9043 17.8938 20.1949 18.3626 20.3355 18.6625L20.598 19.225L20.6261 22.6938C20.6449 25.3844 20.6168 26.2188 20.523 26.3969C20.3824 26.6688 20.0074 26.7438 19.6043 26.575C19.2011 26.4157 18.2168 25.3 17.4574 24.1657C16.6043 22.8907 15.0761 19.7969 14.4574 18.1C13.9043 16.6 13.6699 16.225 13.1636 16.0844C12.7324 15.9719 8.99177 15.9719 8.57927 16.0938Z" fill="white"/>
</svg>
