<svg width="48" height="48" viewBox="0 0 48 48" fill="none" xmlns="http://www.w3.org/2000/svg">
<g clip-path="url(#clip0_331_1046)">
<rect width="48" height="48" fill="#1A1A1A"/>
<path d="M39.5023 16.214C39.1424 14.8347 38.043 13.7353 36.6636 13.3754C34.1249 12.6758 23.99 12.6758 23.99 12.6758C23.99 12.6758 13.875 12.6758 11.3362 13.3355C9.97689 13.7153 8.85744 14.8347 8.47763 16.214C7.81796 18.7528 7.81796 24.0102 7.81796 24.0102C7.81796 24.0102 7.81796 29.2876 8.47763 31.7863C8.85744 33.1656 9.9569 34.2651 11.3362 34.6449C13.8949 35.3246 23.99 35.3246 23.99 35.3246C23.99 35.3246 34.1249 35.3246 36.6636 34.6649C38.043 34.2851 39.1424 33.2056 39.5023 31.8063C40.1819 29.2876 40.1819 24.0302 40.1819 24.0302C40.1819 24.0302 40.2019 18.7528 39.5023 16.214Z" fill="white"/>
<path d="M20.7715 28.8476L29.1874 24.01L20.7715 19.1523V28.8476Z" fill="#1A1A1A"/>
</g>
<defs>
<clipPath id="clip0_331_1046">
<rect width="48" height="48" fill="white"/>
</clipPath>
</defs>
</svg>
